<mxfile host="app.diagrams.net" modified="2024-05-24T08:29:32.680Z" agent="Mozilla/5.0 (Windows NT 10.0; Win64; x64) AppleWebKit/537.36 (KHTML, like Gecko) Chrome/124.0.0.0 Safari/537.36" etag="satA-ApptZ5Zyl1_QQF3" version="24.4.1" type="device">
  <diagram name="Страница — 1" id="mvub9Tjp5bwVEi8tjAbB">
    <mxGraphModel dx="4234" dy="2283" grid="1" gridSize="10" guides="1" tooltips="1" connect="1" arrows="1" fold="1" page="1" pageScale="1" pageWidth="827" pageHeight="1169" math="0" shadow="0">
      <root>
        <mxCell id="0" />
        <mxCell id="1" parent="0" />
        <UserObject label="" plantUmlData="{&#xa;  &quot;data&quot;: &quot;@startuml\n\nclass ServiceCategory {\n    +name: CharField(max_length=100)\n    +__str__(): str\n}\n\nclass Service {\n    +name: CharField(max_length=255)\n    +cost: DecimalField(max_digits=8, decimal_places=2)\n    +category: ForeignKey(ServiceCategory, on_delete=models.CASCADE, related_name=&#39;services&#39;)\n    +__str__(): str\n    +Meta\n}\n\nclass Order {\n    +client: ForeignKey(Client, on_delete=models.CASCADE)\n    +pet: ForeignKey(Pet, on_delete=models.CASCADE, related_name=&#39;appointments&#39;)\n    +doctor: ForeignKey(Doctor, on_delete=models.CASCADE, related_name=&#39;appointments&#39;)\n    +date: DateField()\n    +services: ManyToManyField(Service, through=&#39;OrderService&#39;)\n    +total_cost: DecimalField(max_digits=10, decimal_places=2, default=0.0)\n    +__str__(): str\n    +save(*args, **kwargs): void\n}\n\nclass OrderService {\n    +order: ForeignKey(Order, on_delete=models.CASCADE)\n    +service: ForeignKey(Service, on_delete=models.CASCADE)\n}\n\nclass Pet {\n    +client: ForeignKey(Client, on_delete=models.CASCADE)\n    +name: CharField(max_length=255)\n    +species: CharField(max_length=255)\n    +age: IntegerField()\n    +create_date: DateTimeField(blank=True, null=True, default=datetime.datetime.now(), verbose_name=\&quot;Дата добавления питомца\&quot;)\n    +get_local_time(): str\n    +get_utc_time(): str\n}\n\nclass Department {\n    +name: CharField(max_length=100)\n}\n\nclass DoctorSpecialization {\n    +name: CharField(max_length=100)\n}\n\nclass Questions {\n    +question: CharField(max_length=255)\n    +answer: TextField()\n    +date_added: DateTimeField(auto_now_add=True)\n}\n\nclass PromoCode {\n    +promocode: CharField(max_length=50)\n    +percent: IntegerField()\n}\n\nclass Vacancy {\n    +title: CharField(max_length=100)\n    +description: TextField()\n}\n\nclass Review {\n    +user: ForeignKey(settings.AUTH_USER_MODEL, on_delete=models.CASCADE)\n    +rating: IntegerField()\n    +text: TextField()\n    +date: DateField()\n}\n\nclass Articles {\n    +title: CharField(&#39;Название&#39;, max_length=50)\n    +anons: CharField(&#39;Анонс&#39;, max_length=250)\n    +full_text: TextField(&#39;Статья&#39;)\n    +public_date: DateTimeField(&#39;Дата публикации&#39;)\n    +__str__(): str\n    +Meta\n}\n\nclass User {\n    +phone_number: CharField(max_length=20, null=True, blank=True)\n    +date_birth: DateTimeField(blank=True, null=True, verbose_name=\&quot;Дата рождения\&quot;)\n    +is_staff: BooleanField(default=False)\n}\n\nclass Client {\n    +address: CharField(max_length=255)\n    +__str__(): str\n}\n\nclass Doctor {\n    +photo: ImageField(upload_to=\&quot;users/%Y/%m/%d/\&quot;, default=None, blank=True, null=True, verbose_name=\&quot;Фотография\&quot;)\n    +department: CharField(max_length=255)\n    +specializations: CharField(max_length=255)\n    +__str__(): str\n}\n\nServiceCategory \&quot;1\&quot; --&gt; \&quot;0..*\&quot; Service : category\nService \&quot;0..*\&quot; &lt;-- \&quot;0..*\&quot; Order : services\nOrder \&quot;1\&quot; --&gt; \&quot;0..*\&quot; OrderService : order\nService \&quot;1\&quot; --&gt; \&quot;0..*\&quot; OrderService : service\nClient \&quot;1\&quot; --&gt; \&quot;0..*\&quot; Order : client\nPet \&quot;1\&quot; --&gt; \&quot;0..*\&quot; Order : pet\nDoctor \&quot;1\&quot; --&gt; \&quot;0..*\&quot; Order : doctor\nClient \&quot;1\&quot; --&gt; \&quot;0..*\&quot; Pet : client\n\n@enduml\n&quot;,&#xa;  &quot;format&quot;: &quot;svg&quot;&#xa;}" id="_6umiF3vfg3MAaxEVajD-1">
          <mxCell style="shape=image;noLabel=1;verticalAlign=top;aspect=fixed;imageAspect=0;image=data:image/svg+xml,PD94bWwgdmVyc2lvbj0iMS4wIiBlbmNvZGluZz0idXMtYXNjaWkiIHN0YW5kYWxvbmU9Im5vIj8+PHN2ZyB4bWxucz0iaHR0cDovL3d3dy53My5vcmcvMjAwMC9zdmciIHhtbG5zOnhsaW5rPSJodHRwOi8vd3d3LnczLm9yZy8xOTk5L3hsaW5rIiBjb250ZW50U3R5bGVUeXBlPSJ0ZXh0L2NzcyIgaGVpZ2h0PSI3MzBweCIgcHJlc2VydmVBc3BlY3RSYXRpbz0ibm9uZSIgc3R5bGU9IndpZHRoOjM3MTNweDtoZWlnaHQ6NzMwcHg7YmFja2dyb3VuZDojRkZGRkZGOyIgdmVyc2lvbj0iMS4xIiB2aWV3Qm94PSIwIDAgMzcxMyA3MzAiIHdpZHRoPSIzNzEzcHgiIHpvb21BbmRQYW49Im1hZ25pZnkiPjxkZWZzLz48Zz48IS0tY2xhc3MgU2VydmljZUNhdGVnb3J5LS0+PGcgaWQ9ImVsZW1fU2VydmljZUNhdGVnb3J5Ij48cmVjdCBjb2RlTGluZT0iMSIgZmlsbD0iI0YxRjFGMSIgaGVpZ2h0PSI3Ny45Njg4IiBpZD0iU2VydmljZUNhdGVnb3J5IiByeD0iMi41IiByeT0iMi41IiBzdHlsZT0ic3Ryb2tlOiMxODE4MTg7c3Ryb2tlLXdpZHRoOjAuNTsiIHdpZHRoPSIyNDciIHg9IjEzODAiIHk9IjE0LjUiLz48ZWxsaXBzZSBjeD0iMTQ0Ni43NSIgY3k9IjMwLjUiIGZpbGw9IiNBREQxQjIiIHJ4PSIxMSIgcnk9IjExIiBzdHlsZT0ic3Ryb2tlOiMxODE4MTg7c3Ryb2tlLXdpZHRoOjEuMDsiLz48cGF0aCBkPSJNMTQ0NC4zNzUsMzQuNzUgTDE0NDQuMzc1LDM2LjUgTDE0NDkuMzEyNSwzNi41IEwxNDQ5LjMxMjUsMzQuNzUgTDE0NDQuMzc1LDM0Ljc1IFogTTE0NDUuMDYyNSwzNS40Mzc1IFExNDQ1LjA2MjUsMzUuNDM3NSAxNDQ1LjA2MjUsMjYuMjUgTDE0NDMuMzEyNSwyNi4yNSBRMTQ0My4zMTI1LDI2LjI1IDE0NDMuMzEyNSwzNS40Mzc1IEwxNDQ1LjA2MjUsMzUuNDM3NSBaIE0xNDQ4LjYyNSwzNS40Mzc1IEwxNDUwLjM3NSwzNS40Mzc1IFExNDUwLjM3NSwzNS40Mzc1IDE0NTAuMzc1LDMyLjYyNSBMMTQ0OC42MjUsMzIuNjI1IFExNDQ4LjYyNSwzMi42MjUgMTQ0OC42MjUsMzUuNDM3NSBaIE0xNDQ4LjYyNSwyNi4yNSBRMTQ0OC42MjUsMjYuMjUgMTQ0OC42MjUsMjkuMDYyNSBMMTQ1MC4zNzUsMjkuMDYyNSBRMTQ1MC4zNzUsMjkuMDYyNSAxNDUwLjM3NSwyNi4yNSBMMTQ0OC42MjUsMjYuMjUgWiBNMTQ0NC4zNzUsMjYuOTM3NSBMMTQ0OS4zMTI1LDI2LjkzNzUgTDE0NDkuMzEyNSwyNS4xODc1IEwxNDQ0LjM3NSwyNS4xODc1IEwxNDQ0LjM3NSwyNi45Mzc1IFogIiBmaWxsPSIjMDAwMDAwIi8+PHRleHQgZmlsbD0iIzAwMDAwMCIgZm9udC1mYW1pbHk9InNhbnMtc2VyaWYiIGZvbnQtc2l6ZT0iMTQiIGxlbmd0aEFkanVzdD0ic3BhY2luZyIgdGV4dExlbmd0aD0iMTA1IiB4PSIxNDY3LjI1IiB5PSIzNi4yNDIyIj5TZXJ2aWNlQ2F0ZWdvcnk8L3RleHQ+PGxpbmUgc3R5bGU9InN0cm9rZTojMTgxODE4O3N0cm9rZS13aWR0aDowLjU7IiB4MT0iMTM4MSIgeDI9IjE2MjYiIHkxPSI0Ni41IiB5Mj0iNDYuNSIvPjxsaW5lIHN0eWxlPSJzdHJva2U6IzE4MTgxODtzdHJva2Utd2lkdGg6MC41OyIgeDE9IjEzODEiIHgyPSIxNjI2IiB5MT0iNTQuNSIgeTI9IjU0LjUiLz48ZWxsaXBzZSBjeD0iMTM5MSIgY3k9IjY3LjQ5MjIiIGZpbGw9IiM4NEJFODQiIHJ4PSIzIiByeT0iMyIgc3R5bGU9InN0cm9rZTojMDM4MDQ4O3N0cm9rZS13aWR0aDoxLjA7Ii8+PHRleHQgZmlsbD0iIzAwMDAwMCIgZm9udC1mYW1pbHk9InNhbnMtc2VyaWYiIGZvbnQtc2l6ZT0iMTQiIGxlbmd0aEFkanVzdD0ic3BhY2luZyIgdGV4dExlbmd0aD0iMjIxIiB4PSIxNDAwIiB5PSI3MS43MzQ0Ij5uYW1lOiBDaGFyRmllbGQobWF4X2xlbmd0aD0xMDApPC90ZXh0PjxlbGxpcHNlIGN4PSIxMzkxIiBjeT0iODIuNDc2NiIgZmlsbD0iIzg0QkU4NCIgcng9IjMiIHJ5PSIzIiBzdHlsZT0ic3Ryb2tlOiMwMzgwNDg7c3Ryb2tlLXdpZHRoOjEuMDsiLz48dGV4dCBmaWxsPSIjMDAwMDAwIiBmb250LWZhbWlseT0ic2Fucy1zZXJpZiIgZm9udC1zaXplPSIxNCIgbGVuZ3RoQWRqdXN0PSJzcGFjaW5nIiB0ZXh0TGVuZ3RoPSIxMDAiIHg9IjE0MDAiIHk9Ijg2LjcxODgiPl9fc3RyX18oKTogc3RyPC90ZXh0PjwvZz48IS0tY2xhc3MgU2VydmljZS0tPjxnIGlkPSJlbGVtX1NlcnZpY2UiPjxyZWN0IGNvZGVMaW5lPSI2IiBmaWxsPSIjRjFGMUYxIiBoZWlnaHQ9IjEyMi45MjE5IiBpZD0iU2VydmljZSIgcng9IjIuNSIgcnk9IjIuNSIgc3R5bGU9InN0cm9rZTojMTgxODE4O3N0cm9rZS13aWR0aDowLjU7IiB3aWR0aD0iNjQ2IiB4PSIxMTgwLjUiIHk9IjE5MCIvPjxlbGxpcHNlIGN4PSIxNDc0Ljc1IiBjeT0iMjA2IiBmaWxsPSIjQUREMUIyIiByeD0iMTEiIHJ5PSIxMSIgc3R5bGU9InN0cm9rZTojMTgxODE4O3N0cm9rZS13aWR0aDoxLjA7Ii8+PHBhdGggZD0iTTE0NzIuMzc1LDIxMC4yNSBMMTQ3Mi4zNzUsMjEyIEwxNDc3LjMxMjUsMjEyIEwxNDc3LjMxMjUsMjEwLjI1IEwxNDcyLjM3NSwyMTAuMjUgWiBNMTQ3My4wNjI1LDIxMC45Mzc1IFExNDczLjA2MjUsMjEwLjkzNzUgMTQ3My4wNjI1LDIwMS43NSBMMTQ3MS4zMTI1LDIwMS43NSBRMTQ3MS4zMTI1LDIwMS43NSAxNDcxLjMxMjUsMjEwLjkzNzUgTDE0NzMuMDYyNSwyMTAuOTM3NSBaIE0xNDc2LjYyNSwyMTAuOTM3NSBMMTQ3OC4zNzUsMjEwLjkzNzUgUTE0NzguMzc1LDIxMC45Mzc1IDE0NzguMzc1LDIwOC4xMjUgTDE0NzYuNjI1LDIwOC4xMjUgUTE0NzYuNjI1LDIwOC4xMjUgMTQ3Ni42MjUsMjEwLjkzNzUgWiBNMTQ3Ni42MjUsMjAxLjc1IFExNDc2LjYyNSwyMDEuNzUgMTQ3Ni42MjUsMjA0LjU2MjUgTDE0NzguMzc1LDIwNC41NjI1IFExNDc4LjM3NSwyMDQuNTYyNSAxNDc4LjM3NSwyMDEuNzUgTDE0NzYuNjI1LDIwMS43NSBaIE0xNDcyLjM3NSwyMDIuNDM3NSBMMTQ3Ny4zMTI1LDIwMi40Mzc1IEwxNDc3LjMxMjUsMjAwLjY4NzUgTDE0NzIuMzc1LDIwMC42ODc1IEwxNDcyLjM3NSwyMDIuNDM3NSBaICIgZmlsbD0iIzAwMDAwMCIvPjx0ZXh0IGZpbGw9IiMwMDAwMDAiIGZvbnQtZmFtaWx5PSJzYW5zLXNlcmlmIiBmb250LXNpemU9IjE0IiBsZW5ndGhBZGp1c3Q9InNwYWNpbmciIHRleHRMZW5ndGg9IjQ5IiB4PSIxNDk1LjI1IiB5PSIyMTEuNzQyMiI+U2VydmljZTwvdGV4dD48bGluZSBzdHlsZT0ic3Ryb2tlOiMxODE4MTg7c3Ryb2tlLXdpZHRoOjAuNTsiIHgxPSIxMTgxLjUiIHgyPSIxODI1LjUiIHkxPSIyMjIiIHkyPSIyMjIiLz48ZWxsaXBzZSBjeD0iMTE5MS41IiBjeT0iMjM0Ljk5MjIiIGZpbGw9Im5vbmUiIHJ4PSIzIiByeT0iMyIgc3R5bGU9InN0cm9rZTojMDM4MDQ4O3N0cm9rZS13aWR0aDoxLjA7Ii8+PHRleHQgZmlsbD0iIzAwMDAwMCIgZm9udC1mYW1pbHk9InNhbnMtc2VyaWYiIGZvbnQtc2l6ZT0iMTQiIGxlbmd0aEFkanVzdD0ic3BhY2luZyIgdGV4dExlbmd0aD0iMjgiIHg9IjEyMDAuNSIgeT0iMjM5LjIzNDQiPk1ldGE8L3RleHQ+PGxpbmUgc3R5bGU9InN0cm9rZTojMTgxODE4O3N0cm9rZS13aWR0aDowLjU7IiB4MT0iMTE4MS41IiB4Mj0iMTgyNS41IiB5MT0iMjQ0Ljk4NDQiIHkyPSIyNDQuOTg0NCIvPjxlbGxpcHNlIGN4PSIxMTkxLjUiIGN5PSIyNTcuOTc2NiIgZmlsbD0iIzg0QkU4NCIgcng9IjMiIHJ5PSIzIiBzdHlsZT0ic3Ryb2tlOiMwMzgwNDg7c3Ryb2tlLXdpZHRoOjEuMDsiLz48dGV4dCBmaWxsPSIjMDAwMDAwIiBmb250LWZhbWlseT0ic2Fucy1zZXJpZiIgZm9udC1zaXplPSIxNCIgbGVuZ3RoQWRqdXN0PSJzcGFjaW5nIiB0ZXh0TGVuZ3RoPSIyMjEiIHg9IjEyMDAuNSIgeT0iMjYyLjIxODgiPm5hbWU6IENoYXJGaWVsZChtYXhfbGVuZ3RoPTI1NSk8L3RleHQ+PGVsbGlwc2UgY3g9IjExOTEuNSIgY3k9IjI3Mi45NjA5IiBmaWxsPSIjODRCRTg0IiByeD0iMyIgcnk9IjMiIHN0eWxlPSJzdHJva2U6IzAzODA0ODtzdHJva2Utd2lkdGg6MS4wOyIvPjx0ZXh0IGZpbGw9IiMwMDAwMDAiIGZvbnQtZmFtaWx5PSJzYW5zLXNlcmlmIiBmb250LXNpemU9IjE0IiBsZW5ndGhBZGp1c3Q9InNwYWNpbmciIHRleHRMZW5ndGg9IjM1NSIgeD0iMTIwMC41IiB5PSIyNzcuMjAzMSI+Y29zdDogRGVjaW1hbEZpZWxkKG1heF9kaWdpdHM9OCwgZGVjaW1hbF9wbGFjZXM9Mik8L3RleHQ+PGVsbGlwc2UgY3g9IjExOTEuNSIgY3k9IjI4Ny45NDUzIiBmaWxsPSIjODRCRTg0IiByeD0iMyIgcnk9IjMiIHN0eWxlPSJzdHJva2U6IzAzODA0ODtzdHJva2Utd2lkdGg6MS4wOyIvPjx0ZXh0IGZpbGw9IiMwMDAwMDAiIGZvbnQtZmFtaWx5PSJzYW5zLXNlcmlmIiBmb250LXNpemU9IjE0IiBsZW5ndGhBZGp1c3Q9InNwYWNpbmciIHRleHRMZW5ndGg9IjYyMCIgeD0iMTIwMC41IiB5PSIyOTIuMTg3NSI+Y2F0ZWdvcnk6IEZvcmVpZ25LZXkoU2VydmljZUNhdGVnb3J5LCBvbl9kZWxldGU9bW9kZWxzLkNBU0NBREUsIHJlbGF0ZWRfbmFtZT0nc2VydmljZXMnKTwvdGV4dD48ZWxsaXBzZSBjeD0iMTE5MS41IiBjeT0iMzAyLjkyOTciIGZpbGw9IiM4NEJFODQiIHJ4PSIzIiByeT0iMyIgc3R5bGU9InN0cm9rZTojMDM4MDQ4O3N0cm9rZS13aWR0aDoxLjA7Ii8+PHRleHQgZmlsbD0iIzAwMDAwMCIgZm9udC1mYW1pbHk9InNhbnMtc2VyaWYiIGZvbnQtc2l6ZT0iMTQiIGxlbmd0aEFkanVzdD0ic3BhY2luZyIgdGV4dExlbmd0aD0iMTAwIiB4PSIxMjAwLjUiIHk9IjMwNy4xNzE5Ij5fX3N0cl9fKCk6IHN0cjwvdGV4dD48L2c+PCEtLWNsYXNzIE9yZGVyLS0+PGcgaWQ9ImVsZW1fT3JkZXIiPjxyZWN0IGNvZGVMaW5lPSIxNCIgZmlsbD0iI0YxRjFGMSIgaGVpZ2h0PSIxNjcuODc1IiBpZD0iT3JkZXIiIHJ4PSIyLjUiIHJ5PSIyLjUiIHN0eWxlPSJzdHJva2U6IzE4MTgxODtzdHJva2Utd2lkdGg6MC41OyIgd2lkdGg9IjU5OCIgeD0iMTU5Ny41IiB5PSI0MDMiLz48ZWxsaXBzZSBjeD0iMTg3NC43NSIgY3k9IjQxOSIgZmlsbD0iI0FERDFCMiIgcng9IjExIiByeT0iMTEiIHN0eWxlPSJzdHJva2U6IzE4MTgxODtzdHJva2Utd2lkdGg6MS4wOyIvPjxwYXRoIGQ9Ik0xODcyLjM3NSw0MjMuMjUgTDE4NzIuMzc1LDQyNSBMMTg3Ny4zMTI1LDQyNSBMMTg3Ny4zMTI1LDQyMy4yNSBMMTg3Mi4zNzUsNDIzLjI1IFogTTE4NzMuMDYyNSw0MjMuOTM3NSBRMTg3My4wNjI1LDQyMy45Mzc1IDE4NzMuMDYyNSw0MTQuNzUgTDE4NzEuMzEyNSw0MTQuNzUgUTE4NzEuMzEyNSw0MTQuNzUgMTg3MS4zMTI1LDQyMy45Mzc1IEwxODczLjA2MjUsNDIzLjkzNzUgWiBNMTg3Ni42MjUsNDIzLjkzNzUgTDE4NzguMzc1LDQyMy45Mzc1IFExODc4LjM3NSw0MjMuOTM3NSAxODc4LjM3NSw0MjEuMTI1IEwxODc2LjYyNSw0MjEuMTI1IFExODc2LjYyNSw0MjEuMTI1IDE4NzYuNjI1LDQyMy45Mzc1IFogTTE4NzYuNjI1LDQxNC43NSBRMTg3Ni42MjUsNDE0Ljc1IDE4NzYuNjI1LDQxNy41NjI1IEwxODc4LjM3NSw0MTcuNTYyNSBRMTg3OC4zNzUsNDE3LjU2MjUgMTg3OC4zNzUsNDE0Ljc1IEwxODc2LjYyNSw0MTQuNzUgWiBNMTg3Mi4zNzUsNDE1LjQzNzUgTDE4NzcuMzEyNSw0MTUuNDM3NSBMMTg3Ny4zMTI1LDQxMy42ODc1IEwxODcyLjM3NSw0MTMuNjg3NSBMMTg3Mi4zNzUsNDE1LjQzNzUgWiAiIGZpbGw9IiMwMDAwMDAiLz48dGV4dCBmaWxsPSIjMDAwMDAwIiBmb250LWZhbWlseT0ic2Fucy1zZXJpZiIgZm9udC1zaXplPSIxNCIgbGVuZ3RoQWRqdXN0PSJzcGFjaW5nIiB0ZXh0TGVuZ3RoPSIzNSIgeD0iMTg5NS4yNSIgeT0iNDI0Ljc0MjIiPk9yZGVyPC90ZXh0PjxsaW5lIHN0eWxlPSJzdHJva2U6IzE4MTgxODtzdHJva2Utd2lkdGg6MC41OyIgeDE9IjE1OTguNSIgeDI9IjIxOTQuNSIgeTE9IjQzNSIgeTI9IjQzNSIvPjxsaW5lIHN0eWxlPSJzdHJva2U6IzE4MTgxODtzdHJva2Utd2lkdGg6MC41OyIgeDE9IjE1OTguNSIgeDI9IjIxOTQuNSIgeTE9IjQ0MyIgeTI9IjQ0MyIvPjxlbGxpcHNlIGN4PSIxNjA4LjUiIGN5PSI0NTUuOTkyMiIgZmlsbD0iIzg0QkU4NCIgcng9IjMiIHJ5PSIzIiBzdHlsZT0ic3Ryb2tlOiMwMzgwNDg7c3Ryb2tlLXdpZHRoOjEuMDsiLz48dGV4dCBmaWxsPSIjMDAwMDAwIiBmb250LWZhbWlseT0ic2Fucy1zZXJpZiIgZm9udC1zaXplPSIxNCIgbGVuZ3RoQWRqdXN0PSJzcGFjaW5nIiB0ZXh0TGVuZ3RoPSIzNjciIHg9IjE2MTcuNSIgeT0iNDYwLjIzNDQiPmNsaWVudDogRm9yZWlnbktleShDbGllbnQsIG9uX2RlbGV0ZT1tb2RlbHMuQ0FTQ0FERSk8L3RleHQ+PGVsbGlwc2UgY3g9IjE2MDguNSIgY3k9IjQ3MC45NzY2IiBmaWxsPSIjODRCRTg0IiByeD0iMyIgcnk9IjMiIHN0eWxlPSJzdHJva2U6IzAzODA0ODtzdHJva2Utd2lkdGg6MS4wOyIvPjx0ZXh0IGZpbGw9IiMwMDAwMDAiIGZvbnQtZmFtaWx5PSJzYW5zLXNlcmlmIiBmb250LXNpemU9IjE0IiBsZW5ndGhBZGp1c3Q9InNwYWNpbmciIHRleHRMZW5ndGg9IjUzMCIgeD0iMTYxNy41IiB5PSI0NzUuMjE4OCI+cGV0OiBGb3JlaWduS2V5KFBldCwgb25fZGVsZXRlPW1vZGVscy5DQVNDQURFLCByZWxhdGVkX25hbWU9J2FwcG9pbnRtZW50cycpPC90ZXh0PjxlbGxpcHNlIGN4PSIxNjA4LjUiIGN5PSI0ODUuOTYwOSIgZmlsbD0iIzg0QkU4NCIgcng9IjMiIHJ5PSIzIiBzdHlsZT0ic3Ryb2tlOiMwMzgwNDg7c3Ryb2tlLXdpZHRoOjEuMDsiLz48dGV4dCBmaWxsPSIjMDAwMDAwIiBmb250LWZhbWlseT0ic2Fucy1zZXJpZiIgZm9udC1zaXplPSIxNCIgbGVuZ3RoQWRqdXN0PSJzcGFjaW5nIiB0ZXh0TGVuZ3RoPSI1NzIiIHg9IjE2MTcuNSIgeT0iNDkwLjIwMzEiPmRvY3RvcjogRm9yZWlnbktleShEb2N0b3IsIG9uX2RlbGV0ZT1tb2RlbHMuQ0FTQ0FERSwgcmVsYXRlZF9uYW1lPSdhcHBvaW50bWVudHMnKTwvdGV4dD48ZWxsaXBzZSBjeD0iMTYwOC41IiBjeT0iNTAwLjk0NTMiIGZpbGw9IiM4NEJFODQiIHJ4PSIzIiByeT0iMyIgc3R5bGU9InN0cm9rZTojMDM4MDQ4O3N0cm9rZS13aWR0aDoxLjA7Ii8+PHRleHQgZmlsbD0iIzAwMDAwMCIgZm9udC1mYW1pbHk9InNhbnMtc2VyaWYiIGZvbnQtc2l6ZT0iMTQiIGxlbmd0aEFkanVzdD0ic3BhY2luZyIgdGV4dExlbmd0aD0iMTIxIiB4PSIxNjE3LjUiIHk9IjUwNS4xODc1Ij5kYXRlOiBEYXRlRmllbGQoKTwvdGV4dD48ZWxsaXBzZSBjeD0iMTYwOC41IiBjeT0iNTE1LjkyOTciIGZpbGw9IiM4NEJFODQiIHJ4PSIzIiByeT0iMyIgc3R5bGU9InN0cm9rZTojMDM4MDQ4O3N0cm9rZS13aWR0aDoxLjA7Ii8+PHRleHQgZmlsbD0iIzAwMDAwMCIgZm9udC1mYW1pbHk9InNhbnMtc2VyaWYiIGZvbnQtc2l6ZT0iMTQiIGxlbmd0aEFkanVzdD0ic3BhY2luZyIgdGV4dExlbmd0aD0iNDA4IiB4PSIxNjE3LjUiIHk9IjUyMC4xNzE5Ij5zZXJ2aWNlczogTWFueVRvTWFueUZpZWxkKFNlcnZpY2UsIHRocm91Z2g9J09yZGVyU2VydmljZScpPC90ZXh0PjxlbGxpcHNlIGN4PSIxNjA4LjUiIGN5PSI1MzAuOTE0MSIgZmlsbD0iIzg0QkU4NCIgcng9IjMiIHJ5PSIzIiBzdHlsZT0ic3Ryb2tlOiMwMzgwNDg7c3Ryb2tlLXdpZHRoOjEuMDsiLz48dGV4dCBmaWxsPSIjMDAwMDAwIiBmb250LWZhbWlseT0ic2Fucy1zZXJpZiIgZm9udC1zaXplPSIxNCIgbGVuZ3RoQWRqdXN0PSJzcGFjaW5nIiB0ZXh0TGVuZ3RoPSI0OTUiIHg9IjE2MTcuNSIgeT0iNTM1LjE1NjMiPnRvdGFsX2Nvc3Q6IERlY2ltYWxGaWVsZChtYXhfZGlnaXRzPTEwLCBkZWNpbWFsX3BsYWNlcz0yLCBkZWZhdWx0PTAuMCk8L3RleHQ+PGVsbGlwc2UgY3g9IjE2MDguNSIgY3k9IjU0NS44OTg0IiBmaWxsPSIjODRCRTg0IiByeD0iMyIgcnk9IjMiIHN0eWxlPSJzdHJva2U6IzAzODA0ODtzdHJva2Utd2lkdGg6MS4wOyIvPjx0ZXh0IGZpbGw9IiMwMDAwMDAiIGZvbnQtZmFtaWx5PSJzYW5zLXNlcmlmIiBmb250LXNpemU9IjE0IiBsZW5ndGhBZGp1c3Q9InNwYWNpbmciIHRleHRMZW5ndGg9IjEwMCIgeD0iMTYxNy41IiB5PSI1NTAuMTQwNiI+X19zdHJfXygpOiBzdHI8L3RleHQ+PGVsbGlwc2UgY3g9IjE2MDguNSIgY3k9IjU2MC44ODI4IiBmaWxsPSIjODRCRTg0IiByeD0iMyIgcnk9IjMiIHN0eWxlPSJzdHJva2U6IzAzODA0ODtzdHJva2Utd2lkdGg6MS4wOyIvPjx0ZXh0IGZpbGw9IiMwMDAwMDAiIGZvbnQtZmFtaWx5PSJzYW5zLXNlcmlmIiBmb250LXNpemU9IjE0IiBsZW5ndGhBZGp1c3Q9InNwYWNpbmciIHRleHRMZW5ndGg9IjE5MiIgeD0iMTYxNy41IiB5PSI1NjUuMTI1Ij5zYXZlKCphcmdzLCAqKmt3YXJncyk6IHZvaWQ8L3RleHQ+PC9nPjwhLS1jbGFzcyBPcmRlclNlcnZpY2UtLT48ZyBpZD0iZWxlbV9PcmRlclNlcnZpY2UiPjxyZWN0IGNvZGVMaW5lPSIyNSIgZmlsbD0iI0YxRjFGMSIgaGVpZ2h0PSI3Ny45Njg4IiBpZD0iT3JkZXJTZXJ2aWNlIiByeD0iMi41IiByeT0iMi41IiBzdHlsZT0ic3Ryb2tlOiMxODE4MTg7c3Ryb2tlLXdpZHRoOjAuNTsiIHdpZHRoPSI0MDciIHg9IjEzMzMiIHk9IjY0NiIvPjxlbGxpcHNlIGN4PSIxNDkwLjI1IiBjeT0iNjYyIiBmaWxsPSIjQUREMUIyIiByeD0iMTEiIHJ5PSIxMSIgc3R5bGU9InN0cm9rZTojMTgxODE4O3N0cm9rZS13aWR0aDoxLjA7Ii8+PHBhdGggZD0iTTE0ODcuODc1LDY2Ni4yNSBMMTQ4Ny44NzUsNjY4IEwxNDkyLjgxMjUsNjY4IEwxNDkyLjgxMjUsNjY2LjI1IEwxNDg3Ljg3NSw2NjYuMjUgWiBNMTQ4OC41NjI1LDY2Ni45Mzc1IFExNDg4LjU2MjUsNjY2LjkzNzUgMTQ4OC41NjI1LDY1Ny43NSBMMTQ4Ni44MTI1LDY1Ny43NSBRMTQ4Ni44MTI1LDY1Ny43NSAxNDg2LjgxMjUsNjY2LjkzNzUgTDE0ODguNTYyNSw2NjYuOTM3NSBaIE0xNDkyLjEyNSw2NjYuOTM3NSBMMTQ5My44NzUsNjY2LjkzNzUgUTE0OTMuODc1LDY2Ni45Mzc1IDE0OTMuODc1LDY2NC4xMjUgTDE0OTIuMTI1LDY2NC4xMjUgUTE0OTIuMTI1LDY2NC4xMjUgMTQ5Mi4xMjUsNjY2LjkzNzUgWiBNMTQ5Mi4xMjUsNjU3Ljc1IFExNDkyLjEyNSw2NTcuNzUgMTQ5Mi4xMjUsNjYwLjU2MjUgTDE0OTMuODc1LDY2MC41NjI1IFExNDkzLjg3NSw2NjAuNTYyNSAxNDkzLjg3NSw2NTcuNzUgTDE0OTIuMTI1LDY1Ny43NSBaIE0xNDg3Ljg3NSw2NTguNDM3NSBMMTQ5Mi44MTI1LDY1OC40Mzc1IEwxNDkyLjgxMjUsNjU2LjY4NzUgTDE0ODcuODc1LDY1Ni42ODc1IEwxNDg3Ljg3NSw2NTguNDM3NSBaICIgZmlsbD0iIzAwMDAwMCIvPjx0ZXh0IGZpbGw9IiMwMDAwMDAiIGZvbnQtZmFtaWx5PSJzYW5zLXNlcmlmIiBmb250LXNpemU9IjE0IiBsZW5ndGhBZGp1c3Q9InNwYWNpbmciIHRleHRMZW5ndGg9Ijg0IiB4PSIxNTEwLjc1IiB5PSI2NjcuNzQyMiI+T3JkZXJTZXJ2aWNlPC90ZXh0PjxsaW5lIHN0eWxlPSJzdHJva2U6IzE4MTgxODtzdHJva2Utd2lkdGg6MC41OyIgeDE9IjEzMzQiIHgyPSIxNzM5IiB5MT0iNjc4IiB5Mj0iNjc4Ii8+PGxpbmUgc3R5bGU9InN0cm9rZTojMTgxODE4O3N0cm9rZS13aWR0aDowLjU7IiB4MT0iMTMzNCIgeDI9IjE3MzkiIHkxPSI2ODYiIHkyPSI2ODYiLz48ZWxsaXBzZSBjeD0iMTM0NCIgY3k9IjY5OC45OTIyIiBmaWxsPSIjODRCRTg0IiByeD0iMyIgcnk9IjMiIHN0eWxlPSJzdHJva2U6IzAzODA0ODtzdHJva2Utd2lkdGg6MS4wOyIvPjx0ZXh0IGZpbGw9IiMwMDAwMDAiIGZvbnQtZmFtaWx5PSJzYW5zLXNlcmlmIiBmb250LXNpemU9IjE0IiBsZW5ndGhBZGp1c3Q9InNwYWNpbmciIHRleHRMZW5ndGg9IjM1MyIgeD0iMTM1MyIgeT0iNzAzLjIzNDQiPm9yZGVyOiBGb3JlaWduS2V5KE9yZGVyLCBvbl9kZWxldGU9bW9kZWxzLkNBU0NBREUpPC90ZXh0PjxlbGxpcHNlIGN4PSIxMzQ0IiBjeT0iNzEzLjk3NjYiIGZpbGw9IiM4NEJFODQiIHJ4PSIzIiByeT0iMyIgc3R5bGU9InN0cm9rZTojMDM4MDQ4O3N0cm9rZS13aWR0aDoxLjA7Ii8+PHRleHQgZmlsbD0iIzAwMDAwMCIgZm9udC1mYW1pbHk9InNhbnMtc2VyaWYiIGZvbnQtc2l6ZT0iMTQiIGxlbmd0aEFkanVzdD0ic3BhY2luZyIgdGV4dExlbmd0aD0iMzgxIiB4PSIxMzUzIiB5PSI3MTguMjE4OCI+c2VydmljZTogRm9yZWlnbktleShTZXJ2aWNlLCBvbl9kZWxldGU9bW9kZWxzLkNBU0NBREUpPC90ZXh0PjwvZz48IS0tY2xhc3MgUGV0LS0+PGcgaWQ9ImVsZW1fUGV0Ij48cmVjdCBjb2RlTGluZT0iMzAiIGZpbGw9IiNGMUYxRjEiIGhlaWdodD0iMTUyLjg5MDYiIGlkPSJQZXQiIHJ4PSIyLjUiIHJ5PSIyLjUiIHN0eWxlPSJzdHJva2U6IzE4MTgxODtzdHJva2Utd2lkdGg6MC41OyIgd2lkdGg9Ijg5MiIgeD0iMTk3Mi41IiB5PSIxNzUiLz48ZWxsaXBzZSBjeD0iMjQwMy43NSIgY3k9IjE5MSIgZmlsbD0iI0FERDFCMiIgcng9IjExIiByeT0iMTEiIHN0eWxlPSJzdHJva2U6IzE4MTgxODtzdHJva2Utd2lkdGg6MS4wOyIvPjxwYXRoIGQ9Ik0yNDAxLjM3NSwxOTUuMjUgTDI0MDEuMzc1LDE5NyBMMjQwNi4zMTI1LDE5NyBMMjQwNi4zMTI1LDE5NS4yNSBMMjQwMS4zNzUsMTk1LjI1IFogTTI0MDIuMDYyNSwxOTUuOTM3NSBRMjQwMi4wNjI1LDE5NS45Mzc1IDI0MDIuMDYyNSwxODYuNzUgTDI0MDAuMzEyNSwxODYuNzUgUTI0MDAuMzEyNSwxODYuNzUgMjQwMC4zMTI1LDE5NS45Mzc1IEwyNDAyLjA2MjUsMTk1LjkzNzUgWiBNMjQwNS42MjUsMTk1LjkzNzUgTDI0MDcuMzc1LDE5NS45Mzc1IFEyNDA3LjM3NSwxOTUuOTM3NSAyNDA3LjM3NSwxOTMuMTI1IEwyNDA1LjYyNSwxOTMuMTI1IFEyNDA1LjYyNSwxOTMuMTI1IDI0MDUuNjI1LDE5NS45Mzc1IFogTTI0MDUuNjI1LDE4Ni43NSBRMjQwNS42MjUsMTg2Ljc1IDI0MDUuNjI1LDE4OS41NjI1IEwyNDA3LjM3NSwxODkuNTYyNSBRMjQwNy4zNzUsMTg5LjU2MjUgMjQwNy4zNzUsMTg2Ljc1IEwyNDA1LjYyNSwxODYuNzUgWiBNMjQwMS4zNzUsMTg3LjQzNzUgTDI0MDYuMzEyNSwxODcuNDM3NSBMMjQwNi4zMTI1LDE4NS42ODc1IEwyNDAxLjM3NSwxODUuNjg3NSBMMjQwMS4zNzUsMTg3LjQzNzUgWiAiIGZpbGw9IiMwMDAwMDAiLz48dGV4dCBmaWxsPSIjMDAwMDAwIiBmb250LWZhbWlseT0ic2Fucy1zZXJpZiIgZm9udC1zaXplPSIxNCIgbGVuZ3RoQWRqdXN0PSJzcGFjaW5nIiB0ZXh0TGVuZ3RoPSIyMSIgeD0iMjQyNC4yNSIgeT0iMTk2Ljc0MjIiPlBldDwvdGV4dD48bGluZSBzdHlsZT0ic3Ryb2tlOiMxODE4MTg7c3Ryb2tlLXdpZHRoOjAuNTsiIHgxPSIxOTczLjUiIHgyPSIyODYzLjUiIHkxPSIyMDciIHkyPSIyMDciLz48bGluZSBzdHlsZT0ic3Ryb2tlOiMxODE4MTg7c3Ryb2tlLXdpZHRoOjAuNTsiIHgxPSIxOTczLjUiIHgyPSIyODYzLjUiIHkxPSIyMTUiIHkyPSIyMTUiLz48ZWxsaXBzZSBjeD0iMTk4My41IiBjeT0iMjI3Ljk5MjIiIGZpbGw9IiM4NEJFODQiIHJ4PSIzIiByeT0iMyIgc3R5bGU9InN0cm9rZTojMDM4MDQ4O3N0cm9rZS13aWR0aDoxLjA7Ii8+PHRleHQgZmlsbD0iIzAwMDAwMCIgZm9udC1mYW1pbHk9InNhbnMtc2VyaWYiIGZvbnQtc2l6ZT0iMTQiIGxlbmd0aEFkanVzdD0ic3BhY2luZyIgdGV4dExlbmd0aD0iMzY3IiB4PSIxOTkyLjUiIHk9IjIzMi4yMzQ0Ij5jbGllbnQ6IEZvcmVpZ25LZXkoQ2xpZW50LCBvbl9kZWxldGU9bW9kZWxzLkNBU0NBREUpPC90ZXh0PjxlbGxpcHNlIGN4PSIxOTgzLjUiIGN5PSIyNDIuOTc2NiIgZmlsbD0iIzg0QkU4NCIgcng9IjMiIHJ5PSIzIiBzdHlsZT0ic3Ryb2tlOiMwMzgwNDg7c3Ryb2tlLXdpZHRoOjEuMDsiLz48dGV4dCBmaWxsPSIjMDAwMDAwIiBmb250LWZhbWlseT0ic2Fucy1zZXJpZiIgZm9udC1zaXplPSIxNCIgbGVuZ3RoQWRqdXN0PSJzcGFjaW5nIiB0ZXh0TGVuZ3RoPSIyMjEiIHg9IjE5OTIuNSIgeT0iMjQ3LjIxODgiPm5hbWU6IENoYXJGaWVsZChtYXhfbGVuZ3RoPTI1NSk8L3RleHQ+PGVsbGlwc2UgY3g9IjE5ODMuNSIgY3k9IjI1Ny45NjA5IiBmaWxsPSIjODRCRTg0IiByeD0iMyIgcnk9IjMiIHN0eWxlPSJzdHJva2U6IzAzODA0ODtzdHJva2Utd2lkdGg6MS4wOyIvPjx0ZXh0IGZpbGw9IiMwMDAwMDAiIGZvbnQtZmFtaWx5PSJzYW5zLXNlcmlmIiBmb250LXNpemU9IjE0IiBsZW5ndGhBZGp1c3Q9InNwYWNpbmciIHRleHRMZW5ndGg9IjI0MSIgeD0iMTk5Mi41IiB5PSIyNjIuMjAzMSI+c3BlY2llczogQ2hhckZpZWxkKG1heF9sZW5ndGg9MjU1KTwvdGV4dD48ZWxsaXBzZSBjeD0iMTk4My41IiBjeT0iMjcyLjk0NTMiIGZpbGw9IiM4NEJFODQiIHJ4PSIzIiByeT0iMyIgc3R5bGU9InN0cm9rZTojMDM4MDQ4O3N0cm9rZS13aWR0aDoxLjA7Ii8+PHRleHQgZmlsbD0iIzAwMDAwMCIgZm9udC1mYW1pbHk9InNhbnMtc2VyaWYiIGZvbnQtc2l6ZT0iMTQiIGxlbmd0aEFkanVzdD0ic3BhY2luZyIgdGV4dExlbmd0aD0iMTM1IiB4PSIxOTkyLjUiIHk9IjI3Ny4xODc1Ij5hZ2U6IEludGVnZXJGaWVsZCgpPC90ZXh0PjxlbGxpcHNlIGN4PSIxOTgzLjUiIGN5PSIyODcuOTI5NyIgZmlsbD0iIzg0QkU4NCIgcng9IjMiIHJ5PSIzIiBzdHlsZT0ic3Ryb2tlOiMwMzgwNDg7c3Ryb2tlLXdpZHRoOjEuMDsiLz48dGV4dCBmaWxsPSIjMDAwMDAwIiBmb250LWZhbWlseT0ic2Fucy1zZXJpZiIgZm9udC1zaXplPSIxNCIgbGVuZ3RoQWRqdXN0PSJzcGFjaW5nIiB0ZXh0TGVuZ3RoPSI4NjYiIHg9IjE5OTIuNSIgeT0iMjkyLjE3MTkiPmNyZWF0ZV9kYXRlOiBEYXRlVGltZUZpZWxkKGJsYW5rPVRydWUsIG51bGw9VHJ1ZSwgZGVmYXVsdD1kYXRldGltZS5kYXRldGltZS5ub3coKSwgdmVyYm9zZV9uYW1lPSImIzEwNDQ7JiMxMDcyOyYjMTA5MDsmIzEwNzI7ICYjMTA3NjsmIzEwODY7JiMxMDczOyYjMTA3MjsmIzEwNzQ7JiMxMDgzOyYjMTA3NzsmIzEwODU7JiMxMDgwOyYjMTEwMzsgJiMxMDg3OyYjMTA4MDsmIzEwOTA7JiMxMDg2OyYjMTA4NDsmIzEwOTQ7JiMxMDcyOyIpPC90ZXh0PjxlbGxpcHNlIGN4PSIxOTgzLjUiIGN5PSIzMDIuOTE0MSIgZmlsbD0iIzg0QkU4NCIgcng9IjMiIHJ5PSIzIiBzdHlsZT0ic3Ryb2tlOiMwMzgwNDg7c3Ryb2tlLXdpZHRoOjEuMDsiLz48dGV4dCBmaWxsPSIjMDAwMDAwIiBmb250LWZhbWlseT0ic2Fucy1zZXJpZiIgZm9udC1zaXplPSIxNCIgbGVuZ3RoQWRqdXN0PSJzcGFjaW5nIiB0ZXh0TGVuZ3RoPSIxNTAiIHg9IjE5OTIuNSIgeT0iMzA3LjE1NjMiPmdldF9sb2NhbF90aW1lKCk6IHN0cjwvdGV4dD48ZWxsaXBzZSBjeD0iMTk4My41IiBjeT0iMzE3Ljg5ODQiIGZpbGw9IiM4NEJFODQiIHJ4PSIzIiByeT0iMyIgc3R5bGU9InN0cm9rZTojMDM4MDQ4O3N0cm9rZS13aWR0aDoxLjA7Ii8+PHRleHQgZmlsbD0iIzAwMDAwMCIgZm9udC1mYW1pbHk9InNhbnMtc2VyaWYiIGZvbnQtc2l6ZT0iMTQiIGxlbmd0aEFkanVzdD0ic3BhY2luZyIgdGV4dExlbmd0aD0iMTM2IiB4PSIxOTkyLjUiIHk9IjMyMi4xNDA2Ij5nZXRfdXRjX3RpbWUoKTogc3RyPC90ZXh0PjwvZz48IS0tY2xhc3MgRGVwYXJ0bWVudC0tPjxnIGlkPSJlbGVtX0RlcGFydG1lbnQiPjxyZWN0IGNvZGVMaW5lPSI0MCIgZmlsbD0iI0YxRjFGMSIgaGVpZ2h0PSI2Mi45ODQ0IiBpZD0iRGVwYXJ0bWVudCIgcng9IjIuNSIgcnk9IjIuNSIgc3R5bGU9InN0cm9rZTojMTgxODE4O3N0cm9rZS13aWR0aDowLjU7IiB3aWR0aD0iMjQ3IiB4PSI1NiIgeT0iMjIiLz48ZWxsaXBzZSBjeD0iMTM5Ljc1IiBjeT0iMzgiIGZpbGw9IiNBREQxQjIiIHJ4PSIxMSIgcnk9IjExIiBzdHlsZT0ic3Ryb2tlOiMxODE4MTg7c3Ryb2tlLXdpZHRoOjEuMDsiLz48cGF0aCBkPSJNMTM3LjM3NSw0Mi4yNSBMMTM3LjM3NSw0NCBMMTQyLjMxMjUsNDQgTDE0Mi4zMTI1LDQyLjI1IEwxMzcuMzc1LDQyLjI1IFogTTEzOC4wNjI1LDQyLjkzNzUgUTEzOC4wNjI1LDQyLjkzNzUgMTM4LjA2MjUsMzMuNzUgTDEzNi4zMTI1LDMzLjc1IFExMzYuMzEyNSwzMy43NSAxMzYuMzEyNSw0Mi45Mzc1IEwxMzguMDYyNSw0Mi45Mzc1IFogTTE0MS42MjUsNDIuOTM3NSBMMTQzLjM3NSw0Mi45Mzc1IFExNDMuMzc1LDQyLjkzNzUgMTQzLjM3NSw0MC4xMjUgTDE0MS42MjUsNDAuMTI1IFExNDEuNjI1LDQwLjEyNSAxNDEuNjI1LDQyLjkzNzUgWiBNMTQxLjYyNSwzMy43NSBRMTQxLjYyNSwzMy43NSAxNDEuNjI1LDM2LjU2MjUgTDE0My4zNzUsMzYuNTYyNSBRMTQzLjM3NSwzNi41NjI1IDE0My4zNzUsMzMuNzUgTDE0MS42MjUsMzMuNzUgWiBNMTM3LjM3NSwzNC40Mzc1IEwxNDIuMzEyNSwzNC40Mzc1IEwxNDIuMzEyNSwzMi42ODc1IEwxMzcuMzc1LDMyLjY4NzUgTDEzNy4zNzUsMzQuNDM3NSBaICIgZmlsbD0iIzAwMDAwMCIvPjx0ZXh0IGZpbGw9IiMwMDAwMDAiIGZvbnQtZmFtaWx5PSJzYW5zLXNlcmlmIiBmb250LXNpemU9IjE0IiBsZW5ndGhBZGp1c3Q9InNwYWNpbmciIHRleHRMZW5ndGg9IjcxIiB4PSIxNjAuMjUiIHk9IjQzLjc0MjIiPkRlcGFydG1lbnQ8L3RleHQ+PGxpbmUgc3R5bGU9InN0cm9rZTojMTgxODE4O3N0cm9rZS13aWR0aDowLjU7IiB4MT0iNTciIHgyPSIzMDIiIHkxPSI1NCIgeTI9IjU0Ii8+PGxpbmUgc3R5bGU9InN0cm9rZTojMTgxODE4O3N0cm9rZS13aWR0aDowLjU7IiB4MT0iNTciIHgyPSIzMDIiIHkxPSI2MiIgeTI9IjYyIi8+PGVsbGlwc2UgY3g9IjY3IiBjeT0iNzQuOTkyMiIgZmlsbD0iIzg0QkU4NCIgcng9IjMiIHJ5PSIzIiBzdHlsZT0ic3Ryb2tlOiMwMzgwNDg7c3Ryb2tlLXdpZHRoOjEuMDsiLz48dGV4dCBmaWxsPSIjMDAwMDAwIiBmb250LWZhbWlseT0ic2Fucy1zZXJpZiIgZm9udC1zaXplPSIxNCIgbGVuZ3RoQWRqdXN0PSJzcGFjaW5nIiB0ZXh0TGVuZ3RoPSIyMjEiIHg9Ijc2IiB5PSI3OS4yMzQ0Ij5uYW1lOiBDaGFyRmllbGQobWF4X2xlbmd0aD0xMDApPC90ZXh0PjwvZz48IS0tY2xhc3MgRG9jdG9yU3BlY2lhbGl6YXRpb24tLT48ZyBpZD0iZWxlbV9Eb2N0b3JTcGVjaWFsaXphdGlvbiI+PHJlY3QgY29kZUxpbmU9IjQ0IiBmaWxsPSIjRjFGMUYxIiBoZWlnaHQ9IjYyLjk4NDQiIGlkPSJEb2N0b3JTcGVjaWFsaXphdGlvbiIgcng9IjIuNSIgcnk9IjIuNSIgc3R5bGU9InN0cm9rZTojMTgxODE4O3N0cm9rZS13aWR0aDowLjU7IiB3aWR0aD0iMjQ3IiB4PSIzMzgiIHk9IjIyIi8+PGVsbGlwc2UgY3g9IjM4Ny4yNSIgY3k9IjM4IiBmaWxsPSIjQUREMUIyIiByeD0iMTEiIHJ5PSIxMSIgc3R5bGU9InN0cm9rZTojMTgxODE4O3N0cm9rZS13aWR0aDoxLjA7Ii8+PHBhdGggZD0iTTM4NC44NzUsNDIuMjUgTDM4NC44NzUsNDQgTDM4OS44MTI1LDQ0IEwzODkuODEyNSw0Mi4yNSBMMzg0Ljg3NSw0Mi4yNSBaIE0zODUuNTYyNSw0Mi45Mzc1IFEzODUuNTYyNSw0Mi45Mzc1IDM4NS41NjI1LDMzLjc1IEwzODMuODEyNSwzMy43NSBRMzgzLjgxMjUsMzMuNzUgMzgzLjgxMjUsNDIuOTM3NSBMMzg1LjU2MjUsNDIuOTM3NSBaIE0zODkuMTI1LDQyLjkzNzUgTDM5MC44NzUsNDIuOTM3NSBRMzkwLjg3NSw0Mi45Mzc1IDM5MC44NzUsNDAuMTI1IEwzODkuMTI1LDQwLjEyNSBRMzg5LjEyNSw0MC4xMjUgMzg5LjEyNSw0Mi45Mzc1IFogTTM4OS4xMjUsMzMuNzUgUTM4OS4xMjUsMzMuNzUgMzg5LjEyNSwzNi41NjI1IEwzOTAuODc1LDM2LjU2MjUgUTM5MC44NzUsMzYuNTYyNSAzOTAuODc1LDMzLjc1IEwzODkuMTI1LDMzLjc1IFogTTM4NC44NzUsMzQuNDM3NSBMMzg5LjgxMjUsMzQuNDM3NSBMMzg5LjgxMjUsMzIuNjg3NSBMMzg0Ljg3NSwzMi42ODc1IEwzODQuODc1LDM0LjQzNzUgWiAiIGZpbGw9IiMwMDAwMDAiLz48dGV4dCBmaWxsPSIjMDAwMDAwIiBmb250LWZhbWlseT0ic2Fucy1zZXJpZiIgZm9udC1zaXplPSIxNCIgbGVuZ3RoQWRqdXN0PSJzcGFjaW5nIiB0ZXh0TGVuZ3RoPSIxNDAiIHg9IjQwNy43NSIgeT0iNDMuNzQyMiI+RG9jdG9yU3BlY2lhbGl6YXRpb248L3RleHQ+PGxpbmUgc3R5bGU9InN0cm9rZTojMTgxODE4O3N0cm9rZS13aWR0aDowLjU7IiB4MT0iMzM5IiB4Mj0iNTg0IiB5MT0iNTQiIHkyPSI1NCIvPjxsaW5lIHN0eWxlPSJzdHJva2U6IzE4MTgxODtzdHJva2Utd2lkdGg6MC41OyIgeDE9IjMzOSIgeDI9IjU4NCIgeTE9IjYyIiB5Mj0iNjIiLz48ZWxsaXBzZSBjeD0iMzQ5IiBjeT0iNzQuOTkyMiIgZmlsbD0iIzg0QkU4NCIgcng9IjMiIHJ5PSIzIiBzdHlsZT0ic3Ryb2tlOiMwMzgwNDg7c3Ryb2tlLXdpZHRoOjEuMDsiLz48dGV4dCBmaWxsPSIjMDAwMDAwIiBmb250LWZhbWlseT0ic2Fucy1zZXJpZiIgZm9udC1zaXplPSIxNCIgbGVuZ3RoQWRqdXN0PSJzcGFjaW5nIiB0ZXh0TGVuZ3RoPSIyMjEiIHg9IjM1OCIgeT0iNzkuMjM0NCI+bmFtZTogQ2hhckZpZWxkKG1heF9sZW5ndGg9MTAwKTwvdGV4dD48L2c+PCEtLWNsYXNzIFF1ZXN0aW9ucy0tPjxnIGlkPSJlbGVtX1F1ZXN0aW9ucyI+PHJlY3QgY29kZUxpbmU9IjQ4IiBmaWxsPSIjRjFGMUYxIiBoZWlnaHQ9IjkyLjk1MzEiIGlkPSJRdWVzdGlvbnMiIHJ4PSIyLjUiIHJ5PSIyLjUiIHN0eWxlPSJzdHJva2U6IzE4MTgxODtzdHJva2Utd2lkdGg6MC41OyIgd2lkdGg9IjMzOCIgeD0iNjIwLjUiIHk9IjciLz48ZWxsaXBzZSBjeD0iNzUzLjc1IiBjeT0iMjMiIGZpbGw9IiNBREQxQjIiIHJ4PSIxMSIgcnk9IjExIiBzdHlsZT0ic3Ryb2tlOiMxODE4MTg7c3Ryb2tlLXdpZHRoOjEuMDsiLz48cGF0aCBkPSJNNzUxLjM3NSwyNy4yNSBMNzUxLjM3NSwyOSBMNzU2LjMxMjUsMjkgTDc1Ni4zMTI1LDI3LjI1IEw3NTEuMzc1LDI3LjI1IFogTTc1Mi4wNjI1LDI3LjkzNzUgUTc1Mi4wNjI1LDI3LjkzNzUgNzUyLjA2MjUsMTguNzUgTDc1MC4zMTI1LDE4Ljc1IFE3NTAuMzEyNSwxOC43NSA3NTAuMzEyNSwyNy45Mzc1IEw3NTIuMDYyNSwyNy45Mzc1IFogTTc1NS42MjUsMjcuOTM3NSBMNzU3LjM3NSwyNy45Mzc1IFE3NTcuMzc1LDI3LjkzNzUgNzU3LjM3NSwyNS4xMjUgTDc1NS42MjUsMjUuMTI1IFE3NTUuNjI1LDI1LjEyNSA3NTUuNjI1LDI3LjkzNzUgWiBNNzU1LjYyNSwxOC43NSBRNzU1LjYyNSwxOC43NSA3NTUuNjI1LDIxLjU2MjUgTDc1Ny4zNzUsMjEuNTYyNSBRNzU3LjM3NSwyMS41NjI1IDc1Ny4zNzUsMTguNzUgTDc1NS42MjUsMTguNzUgWiBNNzUxLjM3NSwxOS40Mzc1IEw3NTYuMzEyNSwxOS40Mzc1IEw3NTYuMzEyNSwxNy42ODc1IEw3NTEuMzc1LDE3LjY4NzUgTDc1MS4zNzUsMTkuNDM3NSBaICIgZmlsbD0iIzAwMDAwMCIvPjx0ZXh0IGZpbGw9IiMwMDAwMDAiIGZvbnQtZmFtaWx5PSJzYW5zLXNlcmlmIiBmb250LXNpemU9IjE0IiBsZW5ndGhBZGp1c3Q9InNwYWNpbmciIHRleHRMZW5ndGg9IjYzIiB4PSI3NzQuMjUiIHk9IjI4Ljc0MjIiPlF1ZXN0aW9uczwvdGV4dD48bGluZSBzdHlsZT0ic3Ryb2tlOiMxODE4MTg7c3Ryb2tlLXdpZHRoOjAuNTsiIHgxPSI2MjEuNSIgeDI9Ijk1Ny41IiB5MT0iMzkiIHkyPSIzOSIvPjxsaW5lIHN0eWxlPSJzdHJva2U6IzE4MTgxODtzdHJva2Utd2lkdGg6MC41OyIgeDE9IjYyMS41IiB4Mj0iOTU3LjUiIHkxPSI0NyIgeTI9IjQ3Ii8+PGVsbGlwc2UgY3g9IjYzMS41IiBjeT0iNTkuOTkyMiIgZmlsbD0iIzg0QkU4NCIgcng9IjMiIHJ5PSIzIiBzdHlsZT0ic3Ryb2tlOiMwMzgwNDg7c3Ryb2tlLXdpZHRoOjEuMDsiLz48dGV4dCBmaWxsPSIjMDAwMDAwIiBmb250LWZhbWlseT0ic2Fucy1zZXJpZiIgZm9udC1zaXplPSIxNCIgbGVuZ3RoQWRqdXN0PSJzcGFjaW5nIiB0ZXh0TGVuZ3RoPSIyNDgiIHg9IjY0MC41IiB5PSI2NC4yMzQ0Ij5xdWVzdGlvbjogQ2hhckZpZWxkKG1heF9sZW5ndGg9MjU1KTwvdGV4dD48ZWxsaXBzZSBjeD0iNjMxLjUiIGN5PSI3NC45NzY2IiBmaWxsPSIjODRCRTg0IiByeD0iMyIgcnk9IjMiIHN0eWxlPSJzdHJva2U6IzAzODA0ODtzdHJva2Utd2lkdGg6MS4wOyIvPjx0ZXh0IGZpbGw9IiMwMDAwMDAiIGZvbnQtZmFtaWx5PSJzYW5zLXNlcmlmIiBmb250LXNpemU9IjE0IiBsZW5ndGhBZGp1c3Q9InNwYWNpbmciIHRleHRMZW5ndGg9IjEzNiIgeD0iNjQwLjUiIHk9Ijc5LjIxODgiPmFuc3dlcjogVGV4dEZpZWxkKCk8L3RleHQ+PGVsbGlwc2UgY3g9IjYzMS41IiBjeT0iODkuOTYwOSIgZmlsbD0iIzg0QkU4NCIgcng9IjMiIHJ5PSIzIiBzdHlsZT0ic3Ryb2tlOiMwMzgwNDg7c3Ryb2tlLXdpZHRoOjEuMDsiLz48dGV4dCBmaWxsPSIjMDAwMDAwIiBmb250LWZhbWlseT0ic2Fucy1zZXJpZiIgZm9udC1zaXplPSIxNCIgbGVuZ3RoQWRqdXN0PSJzcGFjaW5nIiB0ZXh0TGVuZ3RoPSIzMTIiIHg9IjY0MC41IiB5PSI5NC4yMDMxIj5kYXRlX2FkZGVkOiBEYXRlVGltZUZpZWxkKGF1dG9fbm93X2FkZD1UcnVlKTwvdGV4dD48L2c+PCEtLWNsYXNzIFByb21vQ29kZS0tPjxnIGlkPSJlbGVtX1Byb21vQ29kZSI+PHJlY3QgY29kZUxpbmU9IjU0IiBmaWxsPSIjRjFGMUYxIiBoZWlnaHQ9Ijc3Ljk2ODgiIGlkPSJQcm9tb0NvZGUiIHJ4PSIyLjUiIHJ5PSIyLjUiIHN0eWxlPSJzdHJva2U6IzE4MTgxODtzdHJva2Utd2lkdGg6MC41OyIgd2lkdGg9IjI3NSIgeD0iNDIiIHk9IjIxMi41Ii8+PGVsbGlwc2UgY3g9IjE0My4yNSIgY3k9IjIyOC41IiBmaWxsPSIjQUREMUIyIiByeD0iMTEiIHJ5PSIxMSIgc3R5bGU9InN0cm9rZTojMTgxODE4O3N0cm9rZS13aWR0aDoxLjA7Ii8+PHBhdGggZD0iTTE0MC44NzUsMjMyLjc1IEwxNDAuODc1LDIzNC41IEwxNDUuODEyNSwyMzQuNSBMMTQ1LjgxMjUsMjMyLjc1IEwxNDAuODc1LDIzMi43NSBaIE0xNDEuNTYyNSwyMzMuNDM3NSBRMTQxLjU2MjUsMjMzLjQzNzUgMTQxLjU2MjUsMjI0LjI1IEwxMzkuODEyNSwyMjQuMjUgUTEzOS44MTI1LDIyNC4yNSAxMzkuODEyNSwyMzMuNDM3NSBMMTQxLjU2MjUsMjMzLjQzNzUgWiBNMTQ1LjEyNSwyMzMuNDM3NSBMMTQ2Ljg3NSwyMzMuNDM3NSBRMTQ2Ljg3NSwyMzMuNDM3NSAxNDYuODc1LDIzMC42MjUgTDE0NS4xMjUsMjMwLjYyNSBRMTQ1LjEyNSwyMzAuNjI1IDE0NS4xMjUsMjMzLjQzNzUgWiBNMTQ1LjEyNSwyMjQuMjUgUTE0NS4xMjUsMjI0LjI1IDE0NS4xMjUsMjI3LjA2MjUgTDE0Ni44NzUsMjI3LjA2MjUgUTE0Ni44NzUsMjI3LjA2MjUgMTQ2Ljg3NSwyMjQuMjUgTDE0NS4xMjUsMjI0LjI1IFogTTE0MC44NzUsMjI0LjkzNzUgTDE0NS44MTI1LDIyNC45Mzc1IEwxNDUuODEyNSwyMjMuMTg3NSBMMTQwLjg3NSwyMjMuMTg3NSBMMTQwLjg3NSwyMjQuOTM3NSBaICIgZmlsbD0iIzAwMDAwMCIvPjx0ZXh0IGZpbGw9IiMwMDAwMDAiIGZvbnQtZmFtaWx5PSJzYW5zLXNlcmlmIiBmb250LXNpemU9IjE0IiBsZW5ndGhBZGp1c3Q9InNwYWNpbmciIHRleHRMZW5ndGg9IjY0IiB4PSIxNjMuNzUiIHk9IjIzNC4yNDIyIj5Qcm9tb0NvZGU8L3RleHQ+PGxpbmUgc3R5bGU9InN0cm9rZTojMTgxODE4O3N0cm9rZS13aWR0aDowLjU7IiB4MT0iNDMiIHgyPSIzMTYiIHkxPSIyNDQuNSIgeTI9IjI0NC41Ii8+PGxpbmUgc3R5bGU9InN0cm9rZTojMTgxODE4O3N0cm9rZS13aWR0aDowLjU7IiB4MT0iNDMiIHgyPSIzMTYiIHkxPSIyNTIuNSIgeTI9IjI1Mi41Ii8+PGVsbGlwc2UgY3g9IjUzIiBjeT0iMjY1LjQ5MjIiIGZpbGw9IiM4NEJFODQiIHJ4PSIzIiByeT0iMyIgc3R5bGU9InN0cm9rZTojMDM4MDQ4O3N0cm9rZS13aWR0aDoxLjA7Ii8+PHRleHQgZmlsbD0iIzAwMDAwMCIgZm9udC1mYW1pbHk9InNhbnMtc2VyaWYiIGZvbnQtc2l6ZT0iMTQiIGxlbmd0aEFkanVzdD0ic3BhY2luZyIgdGV4dExlbmd0aD0iMjQ5IiB4PSI2MiIgeT0iMjY5LjczNDQiPnByb21vY29kZTogQ2hhckZpZWxkKG1heF9sZW5ndGg9NTApPC90ZXh0PjxlbGxpcHNlIGN4PSI1MyIgY3k9IjI4MC40NzY2IiBmaWxsPSIjODRCRTg0IiByeD0iMyIgcnk9IjMiIHN0eWxlPSJzdHJva2U6IzAzODA0ODtzdHJva2Utd2lkdGg6MS4wOyIvPjx0ZXh0IGZpbGw9IiMwMDAwMDAiIGZvbnQtZmFtaWx5PSJzYW5zLXNlcmlmIiBmb250LXNpemU9IjE0IiBsZW5ndGhBZGp1c3Q9InNwYWNpbmciIHRleHRMZW5ndGg9IjE2MyIgeD0iNjIiIHk9IjI4NC43MTg4Ij5wZXJjZW50OiBJbnRlZ2VyRmllbGQoKTwvdGV4dD48L2c+PCEtLWNsYXNzIFZhY2FuY3ktLT48ZyBpZD0iZWxlbV9WYWNhbmN5Ij48cmVjdCBjb2RlTGluZT0iNTkiIGZpbGw9IiNGMUYxRjEiIGhlaWdodD0iNzcuOTY4OCIgaWQ9IlZhY2FuY3kiIHJ4PSIyLjUiIHJ5PSIyLjUiIHN0eWxlPSJzdHJva2U6IzE4MTgxODtzdHJva2Utd2lkdGg6MC41OyIgd2lkdGg9IjI1MyIgeD0iMzUyIiB5PSIyMTIuNSIvPjxlbGxpcHNlIGN4PSI0NDkuNzUiIGN5PSIyMjguNSIgZmlsbD0iI0FERDFCMiIgcng9IjExIiByeT0iMTEiIHN0eWxlPSJzdHJva2U6IzE4MTgxODtzdHJva2Utd2lkdGg6MS4wOyIvPjxwYXRoIGQ9Ik00NDcuMzc1LDIzMi43NSBMNDQ3LjM3NSwyMzQuNSBMNDUyLjMxMjUsMjM0LjUgTDQ1Mi4zMTI1LDIzMi43NSBMNDQ3LjM3NSwyMzIuNzUgWiBNNDQ4LjA2MjUsMjMzLjQzNzUgUTQ0OC4wNjI1LDIzMy40Mzc1IDQ0OC4wNjI1LDIyNC4yNSBMNDQ2LjMxMjUsMjI0LjI1IFE0NDYuMzEyNSwyMjQuMjUgNDQ2LjMxMjUsMjMzLjQzNzUgTDQ0OC4wNjI1LDIzMy40Mzc1IFogTTQ1MS42MjUsMjMzLjQzNzUgTDQ1My4zNzUsMjMzLjQzNzUgUTQ1My4zNzUsMjMzLjQzNzUgNDUzLjM3NSwyMzAuNjI1IEw0NTEuNjI1LDIzMC42MjUgUTQ1MS42MjUsMjMwLjYyNSA0NTEuNjI1LDIzMy40Mzc1IFogTTQ1MS42MjUsMjI0LjI1IFE0NTEuNjI1LDIyNC4yNSA0NTEuNjI1LDIyNy4wNjI1IEw0NTMuMzc1LDIyNy4wNjI1IFE0NTMuMzc1LDIyNy4wNjI1IDQ1My4zNzUsMjI0LjI1IEw0NTEuNjI1LDIyNC4yNSBaIE00NDcuMzc1LDIyNC45Mzc1IEw0NTIuMzEyNSwyMjQuOTM3NSBMNDUyLjMxMjUsMjIzLjE4NzUgTDQ0Ny4zNzUsMjIzLjE4NzUgTDQ0Ny4zNzUsMjI0LjkzNzUgWiAiIGZpbGw9IiMwMDAwMDAiLz48dGV4dCBmaWxsPSIjMDAwMDAwIiBmb250LWZhbWlseT0ic2Fucy1zZXJpZiIgZm9udC1zaXplPSIxNCIgbGVuZ3RoQWRqdXN0PSJzcGFjaW5nIiB0ZXh0TGVuZ3RoPSI0OSIgeD0iNDcwLjI1IiB5PSIyMzQuMjQyMiI+VmFjYW5jeTwvdGV4dD48bGluZSBzdHlsZT0ic3Ryb2tlOiMxODE4MTg7c3Ryb2tlLXdpZHRoOjAuNTsiIHgxPSIzNTMiIHgyPSI2MDQiIHkxPSIyNDQuNSIgeTI9IjI0NC41Ii8+PGxpbmUgc3R5bGU9InN0cm9rZTojMTgxODE4O3N0cm9rZS13aWR0aDowLjU7IiB4MT0iMzUzIiB4Mj0iNjA0IiB5MT0iMjUyLjUiIHkyPSIyNTIuNSIvPjxlbGxpcHNlIGN4PSIzNjMiIGN5PSIyNjUuNDkyMiIgZmlsbD0iIzg0QkU4NCIgcng9IjMiIHJ5PSIzIiBzdHlsZT0ic3Ryb2tlOiMwMzgwNDg7c3Ryb2tlLXdpZHRoOjEuMDsiLz48dGV4dCBmaWxsPSIjMDAwMDAwIiBmb250LWZhbWlseT0ic2Fucy1zZXJpZiIgZm9udC1zaXplPSIxNCIgbGVuZ3RoQWRqdXN0PSJzcGFjaW5nIiB0ZXh0TGVuZ3RoPSIyMjciIHg9IjM3MiIgeT0iMjY5LjczNDQiPnRpdGxlOiBDaGFyRmllbGQobWF4X2xlbmd0aD0xMDApPC90ZXh0PjxlbGxpcHNlIGN4PSIzNjMiIGN5PSIyODAuNDc2NiIgZmlsbD0iIzg0QkU4NCIgcng9IjMiIHJ5PSIzIiBzdHlsZT0ic3Ryb2tlOiMwMzgwNDg7c3Ryb2tlLXdpZHRoOjEuMDsiLz48dGV4dCBmaWxsPSIjMDAwMDAwIiBmb250LWZhbWlseT0ic2Fucy1zZXJpZiIgZm9udC1zaXplPSIxNCIgbGVuZ3RoQWRqdXN0PSJzcGFjaW5nIiB0ZXh0TGVuZ3RoPSIxNzAiIHg9IjM3MiIgeT0iMjg0LjcxODgiPmRlc2NyaXB0aW9uOiBUZXh0RmllbGQoKTwvdGV4dD48L2c+PCEtLWNsYXNzIFJldmlldy0tPjxnIGlkPSJlbGVtX1JldmlldyI+PHJlY3QgY29kZUxpbmU9IjY0IiBmaWxsPSIjRjFGMUYxIiBoZWlnaHQ9IjEwNy45Mzc1IiBpZD0iUmV2aWV3IiByeD0iMi41IiByeT0iMi41IiBzdHlsZT0ic3Ryb2tlOiMxODE4MTg7c3Ryb2tlLXdpZHRoOjAuNTsiIHdpZHRoPSI1MDUiIHg9IjY0MCIgeT0iMTk3LjUiLz48ZWxsaXBzZSBjeD0iODY2Ljc1IiBjeT0iMjEzLjUiIGZpbGw9IiNBREQxQjIiIHJ4PSIxMSIgcnk9IjExIiBzdHlsZT0ic3Ryb2tlOiMxODE4MTg7c3Ryb2tlLXdpZHRoOjEuMDsiLz48cGF0aCBkPSJNODY0LjM3NSwyMTcuNzUgTDg2NC4zNzUsMjE5LjUgTDg2OS4zMTI1LDIxOS41IEw4NjkuMzEyNSwyMTcuNzUgTDg2NC4zNzUsMjE3Ljc1IFogTTg2NS4wNjI1LDIxOC40Mzc1IFE4NjUuMDYyNSwyMTguNDM3NSA4NjUuMDYyNSwyMDkuMjUgTDg2My4zMTI1LDIwOS4yNSBRODYzLjMxMjUsMjA5LjI1IDg2My4zMTI1LDIxOC40Mzc1IEw4NjUuMDYyNSwyMTguNDM3NSBaIE04NjguNjI1LDIxOC40Mzc1IEw4NzAuMzc1LDIxOC40Mzc1IFE4NzAuMzc1LDIxOC40Mzc1IDg3MC4zNzUsMjE1LjYyNSBMODY4LjYyNSwyMTUuNjI1IFE4NjguNjI1LDIxNS42MjUgODY4LjYyNSwyMTguNDM3NSBaIE04NjguNjI1LDIwOS4yNSBRODY4LjYyNSwyMDkuMjUgODY4LjYyNSwyMTIuMDYyNSBMODcwLjM3NSwyMTIuMDYyNSBRODcwLjM3NSwyMTIuMDYyNSA4NzAuMzc1LDIwOS4yNSBMODY4LjYyNSwyMDkuMjUgWiBNODY0LjM3NSwyMDkuOTM3NSBMODY5LjMxMjUsMjA5LjkzNzUgTDg2OS4zMTI1LDIwOC4xODc1IEw4NjQuMzc1LDIwOC4xODc1IEw4NjQuMzc1LDIwOS45Mzc1IFogIiBmaWxsPSIjMDAwMDAwIi8+PHRleHQgZmlsbD0iIzAwMDAwMCIgZm9udC1mYW1pbHk9InNhbnMtc2VyaWYiIGZvbnQtc2l6ZT0iMTQiIGxlbmd0aEFkanVzdD0ic3BhY2luZyIgdGV4dExlbmd0aD0iNDMiIHg9Ijg4Ny4yNSIgeT0iMjE5LjI0MjIiPlJldmlldzwvdGV4dD48bGluZSBzdHlsZT0ic3Ryb2tlOiMxODE4MTg7c3Ryb2tlLXdpZHRoOjAuNTsiIHgxPSI2NDEiIHgyPSIxMTQ0IiB5MT0iMjI5LjUiIHkyPSIyMjkuNSIvPjxsaW5lIHN0eWxlPSJzdHJva2U6IzE4MTgxODtzdHJva2Utd2lkdGg6MC41OyIgeDE9IjY0MSIgeDI9IjExNDQiIHkxPSIyMzcuNSIgeTI9IjIzNy41Ii8+PGVsbGlwc2UgY3g9IjY1MSIgY3k9IjI1MC40OTIyIiBmaWxsPSIjODRCRTg0IiByeD0iMyIgcnk9IjMiIHN0eWxlPSJzdHJva2U6IzAzODA0ODtzdHJva2Utd2lkdGg6MS4wOyIvPjx0ZXh0IGZpbGw9IiMwMDAwMDAiIGZvbnQtZmFtaWx5PSJzYW5zLXNlcmlmIiBmb250LXNpemU9IjE0IiBsZW5ndGhBZGp1c3Q9InNwYWNpbmciIHRleHRMZW5ndGg9IjQ3OSIgeD0iNjYwIiB5PSIyNTQuNzM0NCI+dXNlcjogRm9yZWlnbktleShzZXR0aW5ncy5BVVRIX1VTRVJfTU9ERUwsIG9uX2RlbGV0ZT1tb2RlbHMuQ0FTQ0FERSk8L3RleHQ+PGVsbGlwc2UgY3g9IjY1MSIgY3k9IjI2NS40NzY2IiBmaWxsPSIjODRCRTg0IiByeD0iMyIgcnk9IjMiIHN0eWxlPSJzdHJva2U6IzAzODA0ODtzdHJva2Utd2lkdGg6MS4wOyIvPjx0ZXh0IGZpbGw9IiMwMDAwMDAiIGZvbnQtZmFtaWx5PSJzYW5zLXNlcmlmIiBmb250LXNpemU9IjE0IiBsZW5ndGhBZGp1c3Q9InNwYWNpbmciIHRleHRMZW5ndGg9IjE1NiIgeD0iNjYwIiB5PSIyNjkuNzE4OCI+cmF0aW5nOiBJbnRlZ2VyRmllbGQoKTwvdGV4dD48ZWxsaXBzZSBjeD0iNjUxIiBjeT0iMjgwLjQ2MDkiIGZpbGw9IiM4NEJFODQiIHJ4PSIzIiByeT0iMyIgc3R5bGU9InN0cm9rZTojMDM4MDQ4O3N0cm9rZS13aWR0aDoxLjA7Ii8+PHRleHQgZmlsbD0iIzAwMDAwMCIgZm9udC1mYW1pbHk9InNhbnMtc2VyaWYiIGZvbnQtc2l6ZT0iMTQiIGxlbmd0aEFkanVzdD0ic3BhY2luZyIgdGV4dExlbmd0aD0iMTIxIiB4PSI2NjAiIHk9IjI4NC43MDMxIj50ZXh0OiBUZXh0RmllbGQoKTwvdGV4dD48ZWxsaXBzZSBjeD0iNjUxIiBjeT0iMjk1LjQ0NTMiIGZpbGw9IiM4NEJFODQiIHJ4PSIzIiByeT0iMyIgc3R5bGU9InN0cm9rZTojMDM4MDQ4O3N0cm9rZS13aWR0aDoxLjA7Ii8+PHRleHQgZmlsbD0iIzAwMDAwMCIgZm9udC1mYW1pbHk9InNhbnMtc2VyaWYiIGZvbnQtc2l6ZT0iMTQiIGxlbmd0aEFkanVzdD0ic3BhY2luZyIgdGV4dExlbmd0aD0iMTIxIiB4PSI2NjAiIHk9IjI5OS42ODc1Ij5kYXRlOiBEYXRlRmllbGQoKTwvdGV4dD48L2c+PCEtLWNsYXNzIEFydGljbGVzLS0+PGcgaWQ9ImVsZW1fQXJ0aWNsZXMiPjxyZWN0IGNvZGVMaW5lPSI3MSIgZmlsbD0iI0YxRjFGMSIgaGVpZ2h0PSIxMzcuOTA2MyIgaWQ9IkFydGljbGVzIiByeD0iMi41IiByeT0iMi41IiBzdHlsZT0ic3Ryb2tlOiMxODE4MTg7c3Ryb2tlLXdpZHRoOjAuNTsiIHdpZHRoPSIzNDUiIHg9IjciIHk9IjQxOCIvPjxlbGxpcHNlIGN4PSIxNDcuMjUiIGN5PSI0MzQiIGZpbGw9IiNBREQxQjIiIHJ4PSIxMSIgcnk9IjExIiBzdHlsZT0ic3Ryb2tlOiMxODE4MTg7c3Ryb2tlLXdpZHRoOjEuMDsiLz48cGF0aCBkPSJNMTQ0Ljg3NSw0MzguMjUgTDE0NC44NzUsNDQwIEwxNDkuODEyNSw0NDAgTDE0OS44MTI1LDQzOC4yNSBMMTQ0Ljg3NSw0MzguMjUgWiBNMTQ1LjU2MjUsNDM4LjkzNzUgUTE0NS41NjI1LDQzOC45Mzc1IDE0NS41NjI1LDQyOS43NSBMMTQzLjgxMjUsNDI5Ljc1IFExNDMuODEyNSw0MjkuNzUgMTQzLjgxMjUsNDM4LjkzNzUgTDE0NS41NjI1LDQzOC45Mzc1IFogTTE0OS4xMjUsNDM4LjkzNzUgTDE1MC44NzUsNDM4LjkzNzUgUTE1MC44NzUsNDM4LjkzNzUgMTUwLjg3NSw0MzYuMTI1IEwxNDkuMTI1LDQzNi4xMjUgUTE0OS4xMjUsNDM2LjEyNSAxNDkuMTI1LDQzOC45Mzc1IFogTTE0OS4xMjUsNDI5Ljc1IFExNDkuMTI1LDQyOS43NSAxNDkuMTI1LDQzMi41NjI1IEwxNTAuODc1LDQzMi41NjI1IFExNTAuODc1LDQzMi41NjI1IDE1MC44NzUsNDI5Ljc1IEwxNDkuMTI1LDQyOS43NSBaIE0xNDQuODc1LDQzMC40Mzc1IEwxNDkuODEyNSw0MzAuNDM3NSBMMTQ5LjgxMjUsNDI4LjY4NzUgTDE0NC44NzUsNDI4LjY4NzUgTDE0NC44NzUsNDMwLjQzNzUgWiAiIGZpbGw9IiMwMDAwMDAiLz48dGV4dCBmaWxsPSIjMDAwMDAwIiBmb250LWZhbWlseT0ic2Fucy1zZXJpZiIgZm9udC1zaXplPSIxNCIgbGVuZ3RoQWRqdXN0PSJzcGFjaW5nIiB0ZXh0TGVuZ3RoPSI1NiIgeD0iMTY3Ljc1IiB5PSI0MzkuNzQyMiI+QXJ0aWNsZXM8L3RleHQ+PGxpbmUgc3R5bGU9InN0cm9rZTojMTgxODE4O3N0cm9rZS13aWR0aDowLjU7IiB4MT0iOCIgeDI9IjM1MSIgeTE9IjQ1MCIgeTI9IjQ1MCIvPjxlbGxpcHNlIGN4PSIxOCIgY3k9IjQ2Mi45OTIyIiBmaWxsPSJub25lIiByeD0iMyIgcnk9IjMiIHN0eWxlPSJzdHJva2U6IzAzODA0ODtzdHJva2Utd2lkdGg6MS4wOyIvPjx0ZXh0IGZpbGw9IiMwMDAwMDAiIGZvbnQtZmFtaWx5PSJzYW5zLXNlcmlmIiBmb250LXNpemU9IjE0IiBsZW5ndGhBZGp1c3Q9InNwYWNpbmciIHRleHRMZW5ndGg9IjI4IiB4PSIyNyIgeT0iNDY3LjIzNDQiPk1ldGE8L3RleHQ+PGxpbmUgc3R5bGU9InN0cm9rZTojMTgxODE4O3N0cm9rZS13aWR0aDowLjU7IiB4MT0iOCIgeDI9IjM1MSIgeTE9IjQ3Mi45ODQ0IiB5Mj0iNDcyLjk4NDQiLz48ZWxsaXBzZSBjeD0iMTgiIGN5PSI0ODUuOTc2NiIgZmlsbD0iIzg0QkU4NCIgcng9IjMiIHJ5PSIzIiBzdHlsZT0ic3Ryb2tlOiMwMzgwNDg7c3Ryb2tlLXdpZHRoOjEuMDsiLz48dGV4dCBmaWxsPSIjMDAwMDAwIiBmb250LWZhbWlseT0ic2Fucy1zZXJpZiIgZm9udC1zaXplPSIxNCIgbGVuZ3RoQWRqdXN0PSJzcGFjaW5nIiB0ZXh0TGVuZ3RoPSIzMDQiIHg9IjI3IiB5PSI0OTAuMjE4OCI+dGl0bGU6IENoYXJGaWVsZCgnJiMxMDUzOyYjMTA3MjsmIzEwNzk7JiMxMDc0OyYjMTA3MjsmIzEwODU7JiMxMDgwOyYjMTA3NzsnLCBtYXhfbGVuZ3RoPTUwKTwvdGV4dD48ZWxsaXBzZSBjeD0iMTgiIGN5PSI1MDAuOTYwOSIgZmlsbD0iIzg0QkU4NCIgcng9IjMiIHJ5PSIzIiBzdHlsZT0ic3Ryb2tlOiMwMzgwNDg7c3Ryb2tlLXdpZHRoOjEuMDsiLz48dGV4dCBmaWxsPSIjMDAwMDAwIiBmb250LWZhbWlseT0ic2Fucy1zZXJpZiIgZm9udC1zaXplPSIxNCIgbGVuZ3RoQWRqdXN0PSJzcGFjaW5nIiB0ZXh0TGVuZ3RoPSIyOTAiIHg9IjI3IiB5PSI1MDUuMjAzMSI+YW5vbnM6IENoYXJGaWVsZCgnJiMxMDQwOyYjMTA4NTsmIzEwODY7JiMxMDg1OyYjMTA4OTsnLCBtYXhfbGVuZ3RoPTI1MCk8L3RleHQ+PGVsbGlwc2UgY3g9IjE4IiBjeT0iNTE1Ljk0NTMiIGZpbGw9IiM4NEJFODQiIHJ4PSIzIiByeT0iMyIgc3R5bGU9InN0cm9rZTojMDM4MDQ4O3N0cm9rZS13aWR0aDoxLjA7Ii8+PHRleHQgZmlsbD0iIzAwMDAwMCIgZm9udC1mYW1pbHk9InNhbnMtc2VyaWYiIGZvbnQtc2l6ZT0iMTQiIGxlbmd0aEFkanVzdD0ic3BhY2luZyIgdGV4dExlbmd0aD0iMjEyIiB4PSIyNyIgeT0iNTIwLjE4NzUiPmZ1bGxfdGV4dDogVGV4dEZpZWxkKCcmIzEwNTc7JiMxMDkwOyYjMTA3MjsmIzEwOTA7JiMxMTAwOyYjMTEwMzsnKTwvdGV4dD48ZWxsaXBzZSBjeD0iMTgiIGN5PSI1MzAuOTI5NyIgZmlsbD0iIzg0QkU4NCIgcng9IjMiIHJ5PSIzIiBzdHlsZT0ic3Ryb2tlOiMwMzgwNDg7c3Ryb2tlLXdpZHRoOjEuMDsiLz48dGV4dCBmaWxsPSIjMDAwMDAwIiBmb250LWZhbWlseT0ic2Fucy1zZXJpZiIgZm9udC1zaXplPSIxNCIgbGVuZ3RoQWRqdXN0PSJzcGFjaW5nIiB0ZXh0TGVuZ3RoPSIzMTkiIHg9IjI3IiB5PSI1MzUuMTcxOSI+cHVibGljX2RhdGU6IERhdGVUaW1lRmllbGQoJyYjMTA0NDsmIzEwNzI7JiMxMDkwOyYjMTA3MjsgJiMxMDg3OyYjMTA5MTsmIzEwNzM7JiMxMDgzOyYjMTA4MDsmIzEwODI7JiMxMDcyOyYjMTA5NDsmIzEwODA7JiMxMDgwOycpPC90ZXh0PjxlbGxpcHNlIGN4PSIxOCIgY3k9IjU0NS45MTQxIiBmaWxsPSIjODRCRTg0IiByeD0iMyIgcnk9IjMiIHN0eWxlPSJzdHJva2U6IzAzODA0ODtzdHJva2Utd2lkdGg6MS4wOyIvPjx0ZXh0IGZpbGw9IiMwMDAwMDAiIGZvbnQtZmFtaWx5PSJzYW5zLXNlcmlmIiBmb250LXNpemU9IjE0IiBsZW5ndGhBZGp1c3Q9InNwYWNpbmciIHRleHRMZW5ndGg9IjEwMCIgeD0iMjciIHk9IjU1MC4xNTYzIj5fX3N0cl9fKCk6IHN0cjwvdGV4dD48L2c+PCEtLWNsYXNzIFVzZXItLT48ZyBpZD0iZWxlbV9Vc2VyIj48cmVjdCBjb2RlTGluZT0iODAiIGZpbGw9IiNGMUYxRjEiIGhlaWdodD0iOTIuOTUzMSIgaWQ9IlVzZXIiIHJ4PSIyLjUiIHJ5PSIyLjUiIHN0eWxlPSJzdHJva2U6IzE4MTgxODtzdHJva2Utd2lkdGg6MC41OyIgd2lkdGg9IjU3OCIgeD0iMzg2LjUiIHk9IjQ0MC41Ii8+PGVsbGlwc2UgY3g9IjY1Ny4yNSIgY3k9IjQ1Ni41IiBmaWxsPSIjQUREMUIyIiByeD0iMTEiIHJ5PSIxMSIgc3R5bGU9InN0cm9rZTojMTgxODE4O3N0cm9rZS13aWR0aDoxLjA7Ii8+PHBhdGggZD0iTTY1NC44NzUsNDYwLjc1IEw2NTQuODc1LDQ2Mi41IEw2NTkuODEyNSw0NjIuNSBMNjU5LjgxMjUsNDYwLjc1IEw2NTQuODc1LDQ2MC43NSBaIE02NTUuNTYyNSw0NjEuNDM3NSBRNjU1LjU2MjUsNDYxLjQzNzUgNjU1LjU2MjUsNDUyLjI1IEw2NTMuODEyNSw0NTIuMjUgUTY1My44MTI1LDQ1Mi4yNSA2NTMuODEyNSw0NjEuNDM3NSBMNjU1LjU2MjUsNDYxLjQzNzUgWiBNNjU5LjEyNSw0NjEuNDM3NSBMNjYwLjg3NSw0NjEuNDM3NSBRNjYwLjg3NSw0NjEuNDM3NSA2NjAuODc1LDQ1OC42MjUgTDY1OS4xMjUsNDU4LjYyNSBRNjU5LjEyNSw0NTguNjI1IDY1OS4xMjUsNDYxLjQzNzUgWiBNNjU5LjEyNSw0NTIuMjUgUTY1OS4xMjUsNDUyLjI1IDY1OS4xMjUsNDU1LjA2MjUgTDY2MC44NzUsNDU1LjA2MjUgUTY2MC44NzUsNDU1LjA2MjUgNjYwLjg3NSw0NTIuMjUgTDY1OS4xMjUsNDUyLjI1IFogTTY1NC44NzUsNDUyLjkzNzUgTDY1OS44MTI1LDQ1Mi45Mzc1IEw2NTkuODEyNSw0NTEuMTg3NSBMNjU0Ljg3NSw0NTEuMTg3NSBMNjU0Ljg3NSw0NTIuOTM3NSBaICIgZmlsbD0iIzAwMDAwMCIvPjx0ZXh0IGZpbGw9IiMwMDAwMDAiIGZvbnQtZmFtaWx5PSJzYW5zLXNlcmlmIiBmb250LXNpemU9IjE0IiBsZW5ndGhBZGp1c3Q9InNwYWNpbmciIHRleHRMZW5ndGg9IjI4IiB4PSI2NzcuNzUiIHk9IjQ2Mi4yNDIyIj5Vc2VyPC90ZXh0PjxsaW5lIHN0eWxlPSJzdHJva2U6IzE4MTgxODtzdHJva2Utd2lkdGg6MC41OyIgeDE9IjM4Ny41IiB4Mj0iOTYzLjUiIHkxPSI0NzIuNSIgeTI9IjQ3Mi41Ii8+PGxpbmUgc3R5bGU9InN0cm9rZTojMTgxODE4O3N0cm9rZS13aWR0aDowLjU7IiB4MT0iMzg3LjUiIHgyPSI5NjMuNSIgeTE9IjQ4MC41IiB5Mj0iNDgwLjUiLz48ZWxsaXBzZSBjeD0iMzk3LjUiIGN5PSI0OTMuNDkyMiIgZmlsbD0iIzg0QkU4NCIgcng9IjMiIHJ5PSIzIiBzdHlsZT0ic3Ryb2tlOiMwMzgwNDg7c3Ryb2tlLXdpZHRoOjEuMDsiLz48dGV4dCBmaWxsPSIjMDAwMDAwIiBmb250LWZhbWlseT0ic2Fucy1zZXJpZiIgZm9udC1zaXplPSIxNCIgbGVuZ3RoQWRqdXN0PSJzcGFjaW5nIiB0ZXh0TGVuZ3RoPSI0MzEiIHg9IjQwNi41IiB5PSI0OTcuNzM0NCI+cGhvbmVfbnVtYmVyOiBDaGFyRmllbGQobWF4X2xlbmd0aD0yMCwgbnVsbD1UcnVlLCBibGFuaz1UcnVlKTwvdGV4dD48ZWxsaXBzZSBjeD0iMzk3LjUiIGN5PSI1MDguNDc2NiIgZmlsbD0iIzg0QkU4NCIgcng9IjMiIHJ5PSIzIiBzdHlsZT0ic3Ryb2tlOiMwMzgwNDg7c3Ryb2tlLXdpZHRoOjEuMDsiLz48dGV4dCBmaWxsPSIjMDAwMDAwIiBmb250LWZhbWlseT0ic2Fucy1zZXJpZiIgZm9udC1zaXplPSIxNCIgbGVuZ3RoQWRqdXN0PSJzcGFjaW5nIiB0ZXh0TGVuZ3RoPSI1NTIiIHg9IjQwNi41IiB5PSI1MTIuNzE4OCI+ZGF0ZV9iaXJ0aDogRGF0ZVRpbWVGaWVsZChibGFuaz1UcnVlLCBudWxsPVRydWUsIHZlcmJvc2VfbmFtZT0iJiMxMDQ0OyYjMTA3MjsmIzEwOTA7JiMxMDcyOyAmIzEwODg7JiMxMDg2OyYjMTA3ODsmIzEwNzY7JiMxMDc3OyYjMTA4NTsmIzEwODA7JiMxMTAzOyIpPC90ZXh0PjxlbGxpcHNlIGN4PSIzOTcuNSIgY3k9IjUyMy40NjA5IiBmaWxsPSIjODRCRTg0IiByeD0iMyIgcnk9IjMiIHN0eWxlPSJzdHJva2U6IzAzODA0ODtzdHJva2Utd2lkdGg6MS4wOyIvPjx0ZXh0IGZpbGw9IiMwMDAwMDAiIGZvbnQtZmFtaWx5PSJzYW5zLXNlcmlmIiBmb250LXNpemU9IjE0IiBsZW5ndGhBZGp1c3Q9InNwYWNpbmciIHRleHRMZW5ndGg9IjI2MSIgeD0iNDA2LjUiIHk9IjUyNy43MDMxIj5pc19zdGFmZjogQm9vbGVhbkZpZWxkKGRlZmF1bHQ9RmFsc2UpPC90ZXh0PjwvZz48IS0tY2xhc3MgQ2xpZW50LS0+PGcgaWQ9ImVsZW1fQ2xpZW50Ij48cmVjdCBjb2RlTGluZT0iODYiIGZpbGw9IiNGMUYxRjEiIGhlaWdodD0iNzcuOTY4OCIgaWQ9IkNsaWVudCIgcng9IjIuNSIgcnk9IjIuNSIgc3R5bGU9InN0cm9rZTojMTgxODE4O3N0cm9rZS13aWR0aDowLjU7IiB3aWR0aD0iMjY3IiB4PSIxOTA4IiB5PSIxNC41Ii8+PGVsbGlwc2UgY3g9IjIwMTYuMjUiIGN5PSIzMC41IiBmaWxsPSIjQUREMUIyIiByeD0iMTEiIHJ5PSIxMSIgc3R5bGU9InN0cm9rZTojMTgxODE4O3N0cm9rZS13aWR0aDoxLjA7Ii8+PHBhdGggZD0iTTIwMTMuODc1LDM0Ljc1IEwyMDEzLjg3NSwzNi41IEwyMDE4LjgxMjUsMzYuNSBMMjAxOC44MTI1LDM0Ljc1IEwyMDEzLjg3NSwzNC43NSBaIE0yMDE0LjU2MjUsMzUuNDM3NSBRMjAxNC41NjI1LDM1LjQzNzUgMjAxNC41NjI1LDI2LjI1IEwyMDEyLjgxMjUsMjYuMjUgUTIwMTIuODEyNSwyNi4yNSAyMDEyLjgxMjUsMzUuNDM3NSBMMjAxNC41NjI1LDM1LjQzNzUgWiBNMjAxOC4xMjUsMzUuNDM3NSBMMjAxOS44NzUsMzUuNDM3NSBRMjAxOS44NzUsMzUuNDM3NSAyMDE5Ljg3NSwzMi42MjUgTDIwMTguMTI1LDMyLjYyNSBRMjAxOC4xMjUsMzIuNjI1IDIwMTguMTI1LDM1LjQzNzUgWiBNMjAxOC4xMjUsMjYuMjUgUTIwMTguMTI1LDI2LjI1IDIwMTguMTI1LDI5LjA2MjUgTDIwMTkuODc1LDI5LjA2MjUgUTIwMTkuODc1LDI5LjA2MjUgMjAxOS44NzUsMjYuMjUgTDIwMTguMTI1LDI2LjI1IFogTTIwMTMuODc1LDI2LjkzNzUgTDIwMTguODEyNSwyNi45Mzc1IEwyMDE4LjgxMjUsMjUuMTg3NSBMMjAxMy44NzUsMjUuMTg3NSBMMjAxMy44NzUsMjYuOTM3NSBaICIgZmlsbD0iIzAwMDAwMCIvPjx0ZXh0IGZpbGw9IiMwMDAwMDAiIGZvbnQtZmFtaWx5PSJzYW5zLXNlcmlmIiBmb250LXNpemU9IjE0IiBsZW5ndGhBZGp1c3Q9InNwYWNpbmciIHRleHRMZW5ndGg9IjQyIiB4PSIyMDM2Ljc1IiB5PSIzNi4yNDIyIj5DbGllbnQ8L3RleHQ+PGxpbmUgc3R5bGU9InN0cm9rZTojMTgxODE4O3N0cm9rZS13aWR0aDowLjU7IiB4MT0iMTkwOSIgeDI9IjIxNzQiIHkxPSI0Ni41IiB5Mj0iNDYuNSIvPjxsaW5lIHN0eWxlPSJzdHJva2U6IzE4MTgxODtzdHJva2Utd2lkdGg6MC41OyIgeDE9IjE5MDkiIHgyPSIyMTc0IiB5MT0iNTQuNSIgeTI9IjU0LjUiLz48ZWxsaXBzZSBjeD0iMTkxOSIgY3k9IjY3LjQ5MjIiIGZpbGw9IiM4NEJFODQiIHJ4PSIzIiByeT0iMyIgc3R5bGU9InN0cm9rZTojMDM4MDQ4O3N0cm9rZS13aWR0aDoxLjA7Ii8+PHRleHQgZmlsbD0iIzAwMDAwMCIgZm9udC1mYW1pbHk9InNhbnMtc2VyaWYiIGZvbnQtc2l6ZT0iMTQiIGxlbmd0aEFkanVzdD0ic3BhY2luZyIgdGV4dExlbmd0aD0iMjQxIiB4PSIxOTI4IiB5PSI3MS43MzQ0Ij5hZGRyZXNzOiBDaGFyRmllbGQobWF4X2xlbmd0aD0yNTUpPC90ZXh0PjxlbGxpcHNlIGN4PSIxOTE5IiBjeT0iODIuNDc2NiIgZmlsbD0iIzg0QkU4NCIgcng9IjMiIHJ5PSIzIiBzdHlsZT0ic3Ryb2tlOiMwMzgwNDg7c3Ryb2tlLXdpZHRoOjEuMDsiLz48dGV4dCBmaWxsPSIjMDAwMDAwIiBmb250LWZhbWlseT0ic2Fucy1zZXJpZiIgZm9udC1zaXplPSIxNCIgbGVuZ3RoQWRqdXN0PSJzcGFjaW5nIiB0ZXh0TGVuZ3RoPSIxMDAiIHg9IjE5MjgiIHk9Ijg2LjcxODgiPl9fc3RyX18oKTogc3RyPC90ZXh0PjwvZz48IS0tY2xhc3MgRG9jdG9yLS0+PGcgaWQ9ImVsZW1fRG9jdG9yIj48cmVjdCBjb2RlTGluZT0iOTEiIGZpbGw9IiNGMUYxRjEiIGhlaWdodD0iMTA3LjkzNzUiIGlkPSJEb2N0b3IiIHJ4PSIyLjUiIHJ5PSIyLjUiIHN0eWxlPSJzdHJva2U6IzE4MTgxODtzdHJva2Utd2lkdGg6MC41OyIgd2lkdGg9IjgwNyIgeD0iMjg5OSIgeT0iMTk3LjUiLz48ZWxsaXBzZSBjeD0iMzI3Ny4yNSIgY3k9IjIxMy41IiBmaWxsPSIjQUREMUIyIiByeD0iMTEiIHJ5PSIxMSIgc3R5bGU9InN0cm9rZTojMTgxODE4O3N0cm9rZS13aWR0aDoxLjA7Ii8+PHBhdGggZD0iTTMyNzQuODc1LDIxNy43NSBMMzI3NC44NzUsMjE5LjUgTDMyNzkuODEyNSwyMTkuNSBMMzI3OS44MTI1LDIxNy43NSBMMzI3NC44NzUsMjE3Ljc1IFogTTMyNzUuNTYyNSwyMTguNDM3NSBRMzI3NS41NjI1LDIxOC40Mzc1IDMyNzUuNTYyNSwyMDkuMjUgTDMyNzMuODEyNSwyMDkuMjUgUTMyNzMuODEyNSwyMDkuMjUgMzI3My44MTI1LDIxOC40Mzc1IEwzMjc1LjU2MjUsMjE4LjQzNzUgWiBNMzI3OS4xMjUsMjE4LjQzNzUgTDMyODAuODc1LDIxOC40Mzc1IFEzMjgwLjg3NSwyMTguNDM3NSAzMjgwLjg3NSwyMTUuNjI1IEwzMjc5LjEyNSwyMTUuNjI1IFEzMjc5LjEyNSwyMTUuNjI1IDMyNzkuMTI1LDIxOC40Mzc1IFogTTMyNzkuMTI1LDIwOS4yNSBRMzI3OS4xMjUsMjA5LjI1IDMyNzkuMTI1LDIxMi4wNjI1IEwzMjgwLjg3NSwyMTIuMDYyNSBRMzI4MC44NzUsMjEyLjA2MjUgMzI4MC44NzUsMjA5LjI1IEwzMjc5LjEyNSwyMDkuMjUgWiBNMzI3NC44NzUsMjA5LjkzNzUgTDMyNzkuODEyNSwyMDkuOTM3NSBMMzI3OS44MTI1LDIwOC4xODc1IEwzMjc0Ljg3NSwyMDguMTg3NSBMMzI3NC44NzUsMjA5LjkzNzUgWiAiIGZpbGw9IiMwMDAwMDAiLz48dGV4dCBmaWxsPSIjMDAwMDAwIiBmb250LWZhbWlseT0ic2Fucy1zZXJpZiIgZm9udC1zaXplPSIxNCIgbGVuZ3RoQWRqdXN0PSJzcGFjaW5nIiB0ZXh0TGVuZ3RoPSI0MiIgeD0iMzI5Ny43NSIgeT0iMjE5LjI0MjIiPkRvY3RvcjwvdGV4dD48bGluZSBzdHlsZT0ic3Ryb2tlOiMxODE4MTg7c3Ryb2tlLXdpZHRoOjAuNTsiIHgxPSIyOTAwIiB4Mj0iMzcwNSIgeTE9IjIyOS41IiB5Mj0iMjI5LjUiLz48bGluZSBzdHlsZT0ic3Ryb2tlOiMxODE4MTg7c3Ryb2tlLXdpZHRoOjAuNTsiIHgxPSIyOTAwIiB4Mj0iMzcwNSIgeTE9IjIzNy41IiB5Mj0iMjM3LjUiLz48ZWxsaXBzZSBjeD0iMjkxMCIgY3k9IjI1MC40OTIyIiBmaWxsPSIjODRCRTg0IiByeD0iMyIgcnk9IjMiIHN0eWxlPSJzdHJva2U6IzAzODA0ODtzdHJva2Utd2lkdGg6MS4wOyIvPjx0ZXh0IGZpbGw9IiMwMDAwMDAiIGZvbnQtZmFtaWx5PSJzYW5zLXNlcmlmIiBmb250LXNpemU9IjE0IiBsZW5ndGhBZGp1c3Q9InNwYWNpbmciIHRleHRMZW5ndGg9Ijc4MSIgeD0iMjkxOSIgeT0iMjU0LjczNDQiPnBob3RvOiBJbWFnZUZpZWxkKHVwbG9hZF90bz0idXNlcnMvJVkvJW0vJWQvIiwgZGVmYXVsdD1Ob25lLCBibGFuaz1UcnVlLCBudWxsPVRydWUsIHZlcmJvc2VfbmFtZT0iJiMxMDYwOyYjMTA4NjsmIzEwOTA7JiMxMDg2OyYjMTA3NTsmIzEwODg7JiMxMDcyOyYjMTA5MjsmIzEwODA7JiMxMTAzOyIpPC90ZXh0PjxlbGxpcHNlIGN4PSIyOTEwIiBjeT0iMjY1LjQ3NjYiIGZpbGw9IiM4NEJFODQiIHJ4PSIzIiByeT0iMyIgc3R5bGU9InN0cm9rZTojMDM4MDQ4O3N0cm9rZS13aWR0aDoxLjA7Ii8+PHRleHQgZmlsbD0iIzAwMDAwMCIgZm9udC1mYW1pbHk9InNhbnMtc2VyaWYiIGZvbnQtc2l6ZT0iMTQiIGxlbmd0aEFkanVzdD0ic3BhY2luZyIgdGV4dExlbmd0aD0iMjYzIiB4PSIyOTE5IiB5PSIyNjkuNzE4OCI+ZGVwYXJ0bWVudDogQ2hhckZpZWxkKG1heF9sZW5ndGg9MjU1KTwvdGV4dD48ZWxsaXBzZSBjeD0iMjkxMCIgY3k9IjI4MC40NjA5IiBmaWxsPSIjODRCRTg0IiByeD0iMyIgcnk9IjMiIHN0eWxlPSJzdHJva2U6IzAzODA0ODtzdHJva2Utd2lkdGg6MS4wOyIvPjx0ZXh0IGZpbGw9IiMwMDAwMDAiIGZvbnQtZmFtaWx5PSJzYW5zLXNlcmlmIiBmb250LXNpemU9IjE0IiBsZW5ndGhBZGp1c3Q9InNwYWNpbmciIHRleHRMZW5ndGg9IjI5NyIgeD0iMjkxOSIgeT0iMjg0LjcwMzEiPnNwZWNpYWxpemF0aW9uczogQ2hhckZpZWxkKG1heF9sZW5ndGg9MjU1KTwvdGV4dD48ZWxsaXBzZSBjeD0iMjkxMCIgY3k9IjI5NS40NDUzIiBmaWxsPSIjODRCRTg0IiByeD0iMyIgcnk9IjMiIHN0eWxlPSJzdHJva2U6IzAzODA0ODtzdHJva2Utd2lkdGg6MS4wOyIvPjx0ZXh0IGZpbGw9IiMwMDAwMDAiIGZvbnQtZmFtaWx5PSJzYW5zLXNlcmlmIiBmb250LXNpemU9IjE0IiBsZW5ndGhBZGp1c3Q9InNwYWNpbmciIHRleHRMZW5ndGg9IjEwMCIgeD0iMjkxOSIgeT0iMjk5LjY4NzUiPl9fc3RyX18oKTogc3RyPC90ZXh0PjwvZz48IS0tbGluayBTZXJ2aWNlQ2F0ZWdvcnkgdG8gU2VydmljZS0tPjxnIGlkPSJsaW5rX1NlcnZpY2VDYXRlZ29yeV9TZXJ2aWNlIj48cGF0aCBjb2RlTGluZT0iOTgiIGQ9Ik0xNTAzLjUsOTIuNzYgQzE1MDMuNSwxMjAuMzggMTUwMy41LDE1Mi4yNiAxNTAzLjUsMTgzLjk3ICIgZmlsbD0ibm9uZSIgaWQ9IlNlcnZpY2VDYXRlZ29yeS10by1TZXJ2aWNlIiBzdHlsZT0ic3Ryb2tlOiMxODE4MTg7c3Ryb2tlLXdpZHRoOjEuMDsiLz48cG9seWdvbiBmaWxsPSIjMTgxODE4IiBwb2ludHM9IjE1MDMuNSwxODkuOTcsMTUwNy41LDE4MC45NywxNTAzLjUsMTg0Ljk3LDE0OTkuNSwxODAuOTcsMTUwMy41LDE4OS45NyIgc3R5bGU9InN0cm9rZTojMTgxODE4O3N0cm9rZS13aWR0aDoxLjA7Ii8+PHRleHQgZmlsbD0iIzAwMDAwMCIgZm9udC1mYW1pbHk9InNhbnMtc2VyaWYiIGZvbnQtc2l6ZT0iMTMiIGxlbmd0aEFkanVzdD0ic3BhY2luZyIgdGV4dExlbmd0aD0iNTUiIHg9IjE1MDQuNSIgeT0iMTQzLjI4OTEiPmNhdGVnb3J5PC90ZXh0Pjx0ZXh0IGZpbGw9IiMwMDAwMDAiIGZvbnQtZmFtaWx5PSJzYW5zLXNlcmlmIiBmb250LXNpemU9IjEzIiBsZW5ndGhBZGp1c3Q9InNwYWNpbmciIHRleHRMZW5ndGg9IjciIHg9IjE0OTUuOTIwMyIgeT0iMTEyLjcwNjMiPjE8L3RleHQ+PHRleHQgZmlsbD0iIzAwMDAwMCIgZm9udC1mYW1pbHk9InNhbnMtc2VyaWYiIGZvbnQtc2l6ZT0iMTMiIGxlbmd0aEFkanVzdD0ic3BhY2luZyIgdGV4dExlbmd0aD0iMjUiIHg9IjE0NzYuODIwMyIgeT0iMTgwLjE4NDIiPjAuLio8L3RleHQ+PC9nPjwhLS1yZXZlcnNlIGxpbmsgU2VydmljZSB0byBPcmRlci0tPjxnIGlkPSJsaW5rX1NlcnZpY2VfT3JkZXIiPjxwYXRoIGNvZGVMaW5lPSI5OSIgZD0iTTE2MTAuNjI4NSwzMTYuMTU0MiBDMTY1Ni42ODg1LDM0My41MTQyIDE3MDYuNjgsMzczLjIyIDE3NTYuNTIsNDAyLjgzICIgZmlsbD0ibm9uZSIgaWQ9IlNlcnZpY2UtYmFja3RvLU9yZGVyIiBzdHlsZT0ic3Ryb2tlOiMxODE4MTg7c3Ryb2tlLXdpZHRoOjEuMDsiLz48cG9seWdvbiBmaWxsPSIjMTgxODE4IiBwb2ludHM9IjE2MDUuNDcsMzEzLjA5LDE2MTEuMTY1LDMyMS4xMjU0LDE2MDkuNzY4OCwzMTUuNjQzNSwxNjE1LjI1MDYsMzE0LjI0NzMsMTYwNS40NywzMTMuMDkiIHN0eWxlPSJzdHJva2U6IzE4MTgxODtzdHJva2Utd2lkdGg6MS4wOyIvPjx0ZXh0IGZpbGw9IiMwMDAwMDAiIGZvbnQtZmFtaWx5PSJzYW5zLXNlcmlmIiBmb250LXNpemU9IjEzIiBsZW5ndGhBZGp1c3Q9InNwYWNpbmciIHRleHRMZW5ndGg9IjU1IiB4PSIxNzAxLjUiIHk9IjM3MS4yODkxIj5zZXJ2aWNlczwvdGV4dD48dGV4dCBmaWxsPSIjMDAwMDAwIiBmb250LWZhbWlseT0ic2Fucy1zZXJpZiIgZm9udC1zaXplPSIxMyIgbGVuZ3RoQWRqdXN0PSJzcGFjaW5nIiB0ZXh0TGVuZ3RoPSIyNSIgeD0iMTU5MC44MTUiIHk9IjMzMy4zMDkzIj4wLi4qPC90ZXh0Pjx0ZXh0IGZpbGw9IiMwMDAwMDAiIGZvbnQtZmFtaWx5PSJzYW5zLXNlcmlmIiBmb250LXNpemU9IjEzIiBsZW5ndGhBZGp1c3Q9InNwYWNpbmciIHRleHRMZW5ndGg9IjI1IiB4PSIxNzE2LjUxMDMiIHk9IjM5My4yNDQ5Ij4wLi4qPC90ZXh0PjwvZz48IS0tbGluayBPcmRlciB0byBPcmRlclNlcnZpY2UtLT48ZyBpZD0ibGlua19PcmRlcl9PcmRlclNlcnZpY2UiPjxwYXRoIGNvZGVMaW5lPSIxMDAiIGQ9Ik0xNzQzLjgzLDU3MS4xMiBDMTY5Ni4xMSw1OTcuMSAxNjUxLjAzOTgsNjIxLjY0MTQgMTYxMS45MDk4LDY0Mi45NDE0ICIgZmlsbD0ibm9uZSIgaWQ9Ik9yZGVyLXRvLU9yZGVyU2VydmljZSIgc3R5bGU9InN0cm9rZTojMTgxODE4O3N0cm9rZS13aWR0aDoxLjA7Ii8+PHBvbHlnb24gZmlsbD0iIzE4MTgxOCIgcG9pbnRzPSIxNjA2LjY0LDY0NS44MSwxNjE2LjQ1NzIsNjQ1LjAyMDQsMTYxMS4wMzE1LDY0My40MTk1LDE2MTIuNjMyNCw2MzcuOTkzOSwxNjA2LjY0LDY0NS44MSIgc3R5bGU9InN0cm9rZTojMTgxODE4O3N0cm9rZS13aWR0aDoxLjA7Ii8+PHRleHQgZmlsbD0iIzAwMDAwMCIgZm9udC1mYW1pbHk9InNhbnMtc2VyaWYiIGZvbnQtc2l6ZT0iMTMiIGxlbmd0aEFkanVzdD0ic3BhY2luZyIgdGV4dExlbmd0aD0iMzUiIHg9IjE2ODUuNSIgeT0iNjE0LjI4OTEiPm9yZGVyPC90ZXh0Pjx0ZXh0IGZpbGw9IiMwMDAwMDAiIGZvbnQtZmFtaWx5PSJzYW5zLXNlcmlmIiBmb250LXNpemU9IjEzIiBsZW5ndGhBZGp1c3Q9InNwYWNpbmciIHRleHRMZW5ndGg9IjciIHg9IjE3MjMuNDA5MSIgeT0iNTkxLjI0MTQiPjE8L3RleHQ+PHRleHQgZmlsbD0iIzAwMDAwMCIgZm9udC1mYW1pbHk9InNhbnMtc2VyaWYiIGZvbnQtc2l6ZT0iMTMiIGxlbmd0aEFkanVzdD0ic3BhY2luZyIgdGV4dExlbmd0aD0iMjUiIHg9IjE1OTIuNjI3NiIgeT0iNjM2LjQ3OTUiPjAuLio8L3RleHQ+PC9nPjwhLS1saW5rIFNlcnZpY2UgdG8gT3JkZXJTZXJ2aWNlLS0+PGcgaWQ9ImxpbmtfU2VydmljZV9PcmRlclNlcnZpY2UiPjxwYXRoIGNvZGVMaW5lPSIxMDEiIGQ9Ik0xNTA4LjE2LDMxMy40MSBDMTUxNS4wNyw0MDMuNzggMTUyNy4zODIyLDU2NC43Njc1IDE1MzMuMTIyMiw2MzkuNzc3NSAiIGZpbGw9Im5vbmUiIGlkPSJTZXJ2aWNlLXRvLU9yZGVyU2VydmljZSIgc3R5bGU9InN0cm9rZTojMTgxODE4O3N0cm9rZS13aWR0aDoxLjA7Ii8+PHBvbHlnb24gZmlsbD0iIzE4MTgxOCIgcG9pbnRzPSIxNTMzLjU4LDY0NS43NiwxNTM2Ljg4MTYsNjM2LjQ4MSwxNTMzLjE5ODUsNjQwLjc3NDYsMTUyOC45MDUsNjM3LjA5MTQsMTUzMy41OCw2NDUuNzYiIHN0eWxlPSJzdHJva2U6IzE4MTgxODtzdHJva2Utd2lkdGg6MS4wOyIvPjx0ZXh0IGZpbGw9IiMwMDAwMDAiIGZvbnQtZmFtaWx5PSJzYW5zLXNlcmlmIiBmb250LXNpemU9IjEzIiBsZW5ndGhBZGp1c3Q9InNwYWNpbmciIHRleHRMZW5ndGg9IjQ4IiB4PSIxNTI4LjUiIHk9IjQ5Mi43ODkxIj5zZXJ2aWNlPC90ZXh0Pjx0ZXh0IGZpbGw9IiMwMDAwMDAiIGZvbnQtZmFtaWx5PSJzYW5zLXNlcmlmIiBmb250LXNpemU9IjEzIiBsZW5ndGhBZGp1c3Q9InNwYWNpbmciIHRleHRMZW5ndGg9IjciIHg9IjE1MDEuMjg2OSIgeT0iMzMzLjIzNTciPjE8L3RleHQ+PHRleHQgZmlsbD0iIzAwMDAwMCIgZm9udC1mYW1pbHk9InNhbnMtc2VyaWYiIGZvbnQtc2l6ZT0iMTMiIGxlbmd0aEFkanVzdD0ic3BhY2luZyIgdGV4dExlbmd0aD0iMjUiIHg9IjE1MDUuNjQwNiIgeT0iNjM2LjQyIj4wLi4qPC90ZXh0PjwvZz48IS0tbGluayBDbGllbnQgdG8gT3JkZXItLT48ZyBpZD0ibGlua19DbGllbnRfT3JkZXIiPjxwYXRoIGNvZGVMaW5lPSIxMDIiIGQ9Ik0xOTg0LjI1LDkyLjUzIEMxOTU3Ljc4LDExMy40NyAxOTI4Ljg3LDE0MS45MyAxOTEzLjUsMTc1IEMxODgwLjIyLDI0Ni41OSAxODc4Ljg3MTksMzMxLjcwMDcgMTg4NC4yOTE5LDM5Ni43NjA3ICIgZmlsbD0ibm9uZSIgaWQ9IkNsaWVudC10by1PcmRlciIgc3R5bGU9InN0cm9rZTojMTgxODE4O3N0cm9rZS13aWR0aDoxLjA7Ii8+PHBvbHlnb24gZmlsbD0iIzE4MTgxOCIgcG9pbnRzPSIxODg0Ljc5LDQwMi43NCwxODg4LjAyOSwzOTMuNDM5LDE4ODQuMzc0OSwzOTcuNzU3MywxODgwLjA1NjYsMzk0LjEwMzEsMTg4NC43OSw0MDIuNzQiIHN0eWxlPSJzdHJva2U6IzE4MTgxODtzdHJva2Utd2lkdGg6MS4wOyIvPjx0ZXh0IGZpbGw9IiMwMDAwMDAiIGZvbnQtZmFtaWx5PSJzYW5zLXNlcmlmIiBmb250LXNpemU9IjEzIiBsZW5ndGhBZGp1c3Q9InNwYWNpbmciIHRleHRMZW5ndGg9IjM5IiB4PSIxOTE0LjUiIHk9IjI1Ny4yODkxIj5jbGllbnQ8L3RleHQ+PHRleHQgZmlsbD0iIzAwMDAwMCIgZm9udC1mYW1pbHk9InNhbnMtc2VyaWYiIGZvbnQtc2l6ZT0iMTMiIGxlbmd0aEFkanVzdD0ic3BhY2luZyIgdGV4dExlbmd0aD0iNyIgeD0iMTk2Ni44MDg2IiB5PSIxMTIuNzI1OCI+MTwvdGV4dD48dGV4dCBmaWxsPSIjMDAwMDAwIiBmb250LWZhbWlseT0ic2Fucy1zZXJpZiIgZm9udC1zaXplPSIxMyIgbGVuZ3RoQWRqdXN0PSJzcGFjaW5nIiB0ZXh0TGVuZ3RoPSIyNSIgeD0iMTg1Ny40ODI1IiB5PSIzOTMuNDI4Ij4wLi4qPC90ZXh0PjwvZz48IS0tbGluayBQZXQgdG8gT3JkZXItLT48ZyBpZD0ibGlua19QZXRfT3JkZXIiPjxwYXRoIGNvZGVMaW5lPSIxMDMiIGQ9Ik0yMjQ5LjM4LDMyOC4xNSBDMjE5Ni4wOCwzNTEuOTkgMjE0Mi4zODcsMzc2LjAwOTkgMjA4Ny45NzcsNDAwLjM0OTkgIiBmaWxsPSJub25lIiBpZD0iUGV0LXRvLU9yZGVyIiBzdHlsZT0ic3Ryb2tlOiMxODE4MTg7c3Ryb2tlLXdpZHRoOjEuMDsiLz48cG9seWdvbiBmaWxsPSIjMTgxODE4IiBwb2ludHM9IjIwODIuNSw0MDIuOCwyMDkyLjM0ODgsNDAyLjc3NjIsMjA4Ny4wNjQxLDQwMC43NTgzLDIwODkuMDgyLDM5NS40NzM2LDIwODIuNSw0MDIuOCIgc3R5bGU9InN0cm9rZTojMTgxODE4O3N0cm9rZS13aWR0aDoxLjA7Ii8+PHRleHQgZmlsbD0iIzAwMDAwMCIgZm9udC1mYW1pbHk9InNhbnMtc2VyaWYiIGZvbnQtc2l6ZT0iMTMiIGxlbmd0aEFkanVzdD0ic3BhY2luZyIgdGV4dExlbmd0aD0iMjAiIHg9IjIxNzQuNSIgeT0iMzcxLjI4OTEiPnBldDwvdGV4dD48dGV4dCBmaWxsPSIjMDAwMDAwIiBmb250LWZhbWlseT0ic2Fucy1zZXJpZiIgZm9udC1zaXplPSIxMyIgbGVuZ3RoQWRqdXN0PSJzcGFjaW5nIiB0ZXh0TGVuZ3RoPSI3IiB4PSIyMjI2LjQ2NjYiIHk9IjM0OC4xNTE2Ij4xPC90ZXh0Pjx0ZXh0IGZpbGw9IiMwMDAwMDAiIGZvbnQtZmFtaWx5PSJzYW5zLXNlcmlmIiBmb250LXNpemU9IjEzIiBsZW5ndGhBZGp1c3Q9InNwYWNpbmciIHRleHRMZW5ndGg9IjI1IiB4PSIyMDc0LjAzNjciIHk9IjM5My40OTM3Ij4wLi4qPC90ZXh0PjwvZz48IS0tbGluayBEb2N0b3IgdG8gT3JkZXItLT48ZyBpZD0ibGlua19Eb2N0b3JfT3JkZXIiPjxwYXRoIGNvZGVMaW5lPSIxMDQiIGQ9Ik0zMDEwLjc1LDMwNS41NCBDMjk2Ny40NCwzMTMuMiAyOTIzLjMyLDMyMC45IDI4ODEuNSwzMjggQzI2NTEuNTIsMzY3LjA2IDIzOTYuODE3MSw0MDcuODI3NSAyMjAxLjQzNzEsNDM4LjU2NzUgIiBmaWxsPSJub25lIiBpZD0iRG9jdG9yLXRvLU9yZGVyIiBzdHlsZT0ic3Ryb2tlOiMxODE4MTg7c3Ryb2tlLXdpZHRoOjEuMDsiLz48cG9seWdvbiBmaWxsPSIjMTgxODE4IiBwb2ludHM9IjIxOTUuNTEsNDM5LjUsMjIwNS4wMjIzLDQ0Mi4wNTI2LDIyMDAuNDQ5Miw0MzguNzIyOSwyMjAzLjc3ODksNDM0LjE0OTgsMjE5NS41MSw0MzkuNSIgc3R5bGU9InN0cm9rZTojMTgxODE4O3N0cm9rZS13aWR0aDoxLjA7Ii8+PHRleHQgZmlsbD0iIzAwMDAwMCIgZm9udC1mYW1pbHk9InNhbnMtc2VyaWYiIGZvbnQtc2l6ZT0iMTMiIGxlbmd0aEFkanVzdD0ic3BhY2luZyIgdGV4dExlbmd0aD0iNDEiIHg9IjI2OTQuNSIgeT0iMzcxLjI4OTEiPmRvY3RvcjwvdGV4dD48dGV4dCBmaWxsPSIjMDAwMDAwIiBmb250LWZhbWlseT0ic2Fucy1zZXJpZiIgZm9udC1zaXplPSIxMyIgbGVuZ3RoQWRqdXN0PSJzcGFjaW5nIiB0ZXh0TGVuZ3RoPSI3IiB4PSIyOTY1LjkyMTEiIHk9IjMyNS42NDgzIj4xPC90ZXh0Pjx0ZXh0IGZpbGw9IiMwMDAwMDAiIGZvbnQtZmFtaWx5PSJzYW5zLXNlcmlmIiBmb250LXNpemU9IjEzIiBsZW5ndGhBZGp1c3Q9InNwYWNpbmciIHRleHRMZW5ndGg9IjI1IiB4PSIyMjAzLjc4NDUiIHk9IjQzNy4zNjg1Ij4wLi4qPC90ZXh0PjwvZz48IS0tbGluayBDbGllbnQgdG8gUGV0LS0+PGcgaWQ9ImxpbmtfQ2xpZW50X1BldCI+PHBhdGggY29kZUxpbmU9IjEwNSIgZD0iTTIxMTQuNjQsOTIuNTIgQzIxNTkuNiwxMTUuOSAyMjEzLjQ3NjMsMTQzLjkxMjYgMjI2Ny42NjYzLDE3Mi4wODI2ICIgZmlsbD0ibm9uZSIgaWQ9IkNsaWVudC10by1QZXQiIHN0eWxlPSJzdHJva2U6IzE4MTgxODtzdHJva2Utd2lkdGg6MS4wOyIvPjxwb2x5Z29uIGZpbGw9IiMxODE4MTgiIHBvaW50cz0iMjI3Mi45OSwxNzQuODUsMjI2Ni44NDk1LDE2Ny4xNDk3LDIyNjguNTUzNiwxNzIuNTQzOCwyMjYzLjE1OTYsMTc0LjI0NzksMjI3Mi45OSwxNzQuODUiIHN0eWxlPSJzdHJva2U6IzE4MTgxODtzdHJva2Utd2lkdGg6MS4wOyIvPjx0ZXh0IGZpbGw9IiMwMDAwMDAiIGZvbnQtZmFtaWx5PSJzYW5zLXNlcmlmIiBmb250LXNpemU9IjEzIiBsZW5ndGhBZGp1c3Q9InNwYWNpbmciIHRleHRMZW5ndGg9IjM5IiB4PSIyMjA4LjUiIHk9IjE0My4yODkxIj5jbGllbnQ8L3RleHQ+PHRleHQgZmlsbD0iIzAwMDAwMCIgZm9udC1mYW1pbHk9InNhbnMtc2VyaWYiIGZvbnQtc2l6ZT0iMTMiIGxlbmd0aEFkanVzdD0ic3BhY2luZyIgdGV4dExlbmd0aD0iNyIgeD0iMjExOS42MDk0IiB5PSIxMTIuNzE0MSI+MTwvdGV4dD48dGV4dCBmaWxsPSIjMDAwMDAwIiBmb250LWZhbWlseT0ic2Fucy1zZXJpZiIgZm9udC1zaXplPSIxMyIgbGVuZ3RoQWRqdXN0PSJzcGFjaW5nIiB0ZXh0TGVuZ3RoPSIyNSIgeD0iMjIzMS42OTUyIiB5PSIxNjUuNjE3Ij4wLi4qPC90ZXh0PjwvZz48IS0tU1JDPVtmTFJUUlhqNTVCeHRLdW1pSE5RMnVwWUg4WTZCSEdmczhYMjRxaVAxdWNlcnRmc2lIdnRUTU1QY2RHUTQxMmRnNUw5eHFMaWthN1cweXJFZUE0clZPVlFERUJFX3RpTGg2dmVCUHRKY2RCRmR2cGxWNzhUWEFUNDU0TkZnYTE1TW5FRlkxZHRUR2wzdEplMXpDYUlaNkhQZGIzMnR3LUQ3RFlFMWZzUk11TTJtY29oUGpiSjJqaGt4R21JN3JaVWpiaEZpU21qVkh5VjdjSS03SXBMNE8tOUc3eERJcHdLVUxUOXdqdVZTekNlRTZOUThqOHZva29wbThKaFpXYjBsLTlaU1Q2ajl6SDBGUjlTbWVlWmJTcFo4X2taYU9kR29Ga3FYR0hYZWtSTzlxa2g4cjUxc0xjVU9vQ3c5bWNNa3p1SEJIOXdmbW9XOUwyTUtLSTlnWlkzeEs0WWdQZnlIak50S0UwbXYzUEdGN29lWVR4Y1prQVp1NzJVWWp0R0J6ejBjLTRyeGI4ZHBrV3RIRUd2azlqcHlmV2ZQQXRmOHBHSUZsOWRMSUlnTVlORXRZWWpleE5lQzcweC0zRzhaa1M4SEt6UVdGclpKQ3VkZGZCazdYSVR4UTZfbHVSS3ZtVnNTS3hWTW9YZnNrUDVMZ2ZYZVJVbmRMZjFMZzVuZE15RzJfTnp4SzZxclUzQTRjZmhFUlQzMzdsWndBODI5OGdCSVVxU0dXOERUOGNEMl9HbVRLdVEzWHpQNEg5MXE0MzZNN1ZFVTZIQzVvbHRZNEYzaHhjdUZwT2NPU2FiSTdCUnJTeHM4Ul9LMndUX3JkVnY1Ql9JbC1mTC1lTF9oYl81SmZEXzBscmt1LTNqLWVYVmpCMllGQTlqbjF3MVlfNVFtT0F1WXZMR2tZaGdGSU9YNTBsYmpjUjBxSlNSaG1mR0pDX2VMTGZHN196ZDlfT1g4T29YcG9veXBtVVItMUZCUUc3TDI3Z2JBVnFublJVb3duQXN0MXFVQXNyMW9TdmtxUFhjMFdsankxQVpBMG1jRG0wNTFHb0o3V3VCQVg5QzBqV1FNbWxOZHNDNjFLcG1yWVlncy1Rcm5ZTkc0M1RESUJFVE9rN3IwdmZIU3ZydVpNUGpSSVBJWVdJVng5dlVKMy10Qll6Qzd6bGN6eVVhZDZ3VDhPNkV0NmxpQTBjYWVVUEtiWW9YRlhBOEU4eDhuLXV4LTRIMy05czF5T0gya050SHdRNU1QU0cwZWdIZS0wdUN4X0poLWhjZm9MRFhTbUdwUXpQV3gtWVNwTlY1al80RnlEMlZhQzllb3dnbVN3YXV2WnNfWW5wMkZobzNBbHEzcTFGd190RnhibDlKYm1uZEVVMDNaN2xiSnF4TkxJMXpLRUFJYWJjTU9Kd2JHaW9yUGc4NWF1Yy1YWGR5MHJNRzRhcENBYlAwSGxoZVFlV3l1UG1HN2dWRVNveXVtYXlscGFyOXFkWHlDYzIxb0N5YXNSTEdmam9uTEl0NDBmMC1TZDNnQkdpUW5Rb2prakd0bXZTN0U1bVN4X2k2RVV6MGt3VlBKZ0Y1b3VUUEx1c1R6YnYzZ1JyMkVIVnB6U1k3U1dZQXRVcmlBQ2xtX3dUVk5xX1BYNi10bGx1X1FXdHZfaHJyaWNhRUt4dTZ2SFF4bnRsdi1WYW5ORE4yVEJJa2pMNTFwTVRhMlhZWFAwNGdkUXRLcG53c2l6d2tLSlFKOVJTa3l5MHFRaTBvc2lldXRRQUpSTlNFN1pFVnlDX3kwXS0tPjwvZz48L3N2Zz4=;" vertex="1" parent="1">
            <mxGeometry x="-1440" y="-70" width="3814.73" height="750" as="geometry" />
          </mxCell>
        </UserObject>
      </root>
    </mxGraphModel>
  </diagram>
</mxfile>
